<svg width="106" height="34" viewBox="0 0 106 34" fill="none" xmlns="http://www.w3.org/2000/svg">
<path fill-rule="evenodd" clip-rule="evenodd" d="M88.6596 2.10718C91.6401 2.10718 94.5538 2.98466 97.032 4.62854C99.5102 6.27242 101.442 8.60872 102.582 11.3424C103.723 14.0761 104.021 17.0845 103.44 19.9865C102.858 22.8886 101.423 25.5542 99.3155 27.6465C97.208 29.7388 94.5229 31.1634 91.5997 31.7407C88.6764 32.318 85.6461 32.0218 82.8925 30.8895C80.1388 29.7572 77.7855 27.8397 76.1296 25.3795C74.4737 22.9192 73.5898 20.0266 73.5898 17.0677C73.5909 13.1003 75.1787 9.29535 78.0046 6.48994C80.8305 3.68453 84.6632 2.10822 88.6596 2.10718ZM88.612 15.3451C88.9927 15.3451 89.3645 15.4569 89.681 15.6669C89.9976 15.8768 90.2442 16.1752 90.39 16.5243C90.5357 16.8735 90.5738 17.2578 90.4996 17.6285C90.4254 17.9991 90.2422 18.3396 89.9731 18.6069C89.704 18.8742 89.3614 19.0567 88.9881 19.1305C88.6147 19.2043 88.2277 19.1666 87.8759 19.0221C87.5242 18.8776 87.2233 18.6324 87.0117 18.3183C86.8001 18.0042 86.6873 17.635 86.6871 17.2571C86.6899 16.751 86.8935 16.2666 87.2538 15.9087C87.6142 15.5508 88.1023 15.3482 88.612 15.3451ZM93.084 19.5448C93.916 19.5448 94.7292 19.7897 95.421 20.2486C96.1127 20.7075 96.652 21.3599 96.9703 22.123C97.2887 22.8861 97.3719 23.7259 97.2096 24.536C97.0473 25.3461 96.6469 26.0903 96.0586 26.6744C95.4703 27.2584 94.7206 27.6559 93.9046 27.817C93.0886 27.9782 92.2427 27.8956 91.474 27.5795C90.7053 27.2634 90.0481 26.7281 89.5859 26.0414C89.1237 25.3546 88.877 24.5473 88.877 23.7214C88.8804 22.6155 89.3241 21.5555 90.1114 20.7732C90.8987 19.9908 91.9657 19.5492 93.0797 19.5448H93.084ZM95.1706 8.36001C96.0049 8.35767 96.8212 8.60124 97.5162 9.05948C98.2113 9.51772 98.7539 10.17 99.0753 10.9344C99.3968 11.6987 99.4828 12.5408 99.3223 13.3536C99.1619 14.1665 98.7625 14.9138 98.1742 15.5012C97.5859 16.0885 96.8352 16.4896 96.0173 16.6535C95.1995 16.8173 94.3512 16.7366 93.5795 16.4217C92.8077 16.1069 92.1472 15.572 91.6817 14.8845C91.2162 14.1971 90.9664 13.3885 90.964 12.5602C90.9614 11.4495 91.4031 10.3827 92.1922 9.59516C92.9812 8.80762 94.0527 8.36341 95.1715 8.36001H95.1706ZM84.4986 6.30689C85.3306 6.30689 86.1438 6.55181 86.8355 7.01069C87.5273 7.46958 88.0665 8.122 88.3849 8.8851C88.7033 9.6482 88.787 10.488 88.6246 11.2981C88.4623 12.1082 88.0615 12.8524 87.4732 13.4365C86.8848 14.0205 86.1352 14.418 85.3192 14.5791C84.5031 14.7403 83.6572 14.6577 82.8886 14.3416C82.1199 14.0255 81.4632 13.4902 81.001 12.8035C80.5387 12.1167 80.292 11.3094 80.292 10.4835C80.2954 9.37675 80.7396 8.31633 81.5279 7.53385C82.3163 6.75136 83.3848 6.31001 84.4996 6.30689H84.4986ZM82.2645 17.4921C83.0989 17.4898 83.9152 17.7329 84.6102 18.1911C85.3053 18.6494 85.8478 19.3021 86.1693 20.0665C86.4908 20.8309 86.5768 21.6724 86.4163 22.4853C86.2558 23.2981 85.856 24.0454 85.2677 24.6328C84.6794 25.2202 83.9292 25.6212 83.1113 25.7851C82.2934 25.949 81.4447 25.8687 80.6729 25.5539C79.9012 25.239 79.2412 24.7041 78.7756 24.0167C78.3101 23.3293 78.0603 22.5202 78.058 21.6918C78.0553 20.5811 78.4971 19.5148 79.2861 18.7273C80.0751 17.9397 81.1467 17.4955 82.2655 17.4921H82.2645Z" fill="#BED2DD"/>
<path fill-rule="evenodd" clip-rule="evenodd" d="M104.987 14.5895C103.966 10.3423 102.919 7.72278 99.1875 4.58447C101.778 4.91498 103.87 5.363 105.225 7.41607C106.579 9.49282 105.937 12.0885 104.987 14.5895Z" fill="#BED2DD"/>
<path fill-rule="evenodd" clip-rule="evenodd" d="M101.684 26.9551C98.7363 30.1871 96.549 32.0045 91.7461 32.9733C94.1699 33.9175 96.2392 34.5309 98.4255 33.351C100.612 32.1937 101.301 29.5981 101.684 26.9551Z" fill="#BED2DD"/>
<path fill-rule="evenodd" clip-rule="evenodd" d="M72.4475 19.9465C73.64 24.1227 74.8009 26.7183 78.6508 29.6919C76.061 29.4798 73.9454 29.1257 72.4955 27.12C71.0694 25.1142 71.5878 22.4712 72.4475 19.9465Z" fill="#BED2DD"/>
<path fill-rule="evenodd" clip-rule="evenodd" d="M75.918 6.82695C79.0076 3.71232 81.2663 1.96577 86.0911 1.18736C83.714 0.149473 81.6701 -0.535209 79.4331 0.550028C77.1961 1.63527 76.4149 4.1839 75.918 6.82695Z" fill="#BED2DD"/>
<path d="M67.2407 2.34299C67.2407 2.36667 61.5605 2.29586 59.3017 2.27218C57.3767 2.2485 54.0017 4.27758 53.9062 7.15642L57.2108 9.09104C57.4483 8.07684 57.5195 6.02384 59.3968 5.71702C60.0865 5.59863 62.249 5.69349 64.0318 5.66981L67.2407 2.34299Z" fill="#BED2DD"/>
<path d="M62.7268 6.87427L58.7812 10.4366V24.1698H62.7268V6.87427Z" fill="#BED2DD"/>
<path d="M57.258 12.395L53.7162 15.6279V18.0115C53.7162 19.7104 53.0981 20.5598 51.839 20.5598H49.1289V24.0524H52.6231C53.3143 24.0842 54.0035 23.9584 54.6381 23.6848C55.2727 23.4112 55.8357 22.9969 56.2841 22.4737C57.03 21.4854 57.3837 20.2594 57.2778 19.0289L57.258 12.395Z" fill="#BED2DD"/>
<path d="M50.0321 20.5639H45.8015V6.85059L42.0938 10.3658V19.758C42.0938 22.6132 43.5914 24.0526 46.5658 24.0526H50.036L50.0321 20.5639Z" fill="#BED2DD"/>
<path d="M40.4774 11.4512L36.6741 15.0848L36.6503 22.2583C36.6503 24.995 34.9867 25.2315 33.4414 25.7031L35.6755 29.0776C38.9798 28.7471 40.4774 25.6088 40.4774 21.9042V11.4512Z" fill="#BED2DD"/>
<path d="M27.2395 11.8762L23.4631 15.1091L23.487 17.9643C23.5516 18.519 23.4113 19.0782 23.0923 19.5381C22.7732 19.998 22.2969 20.3276 21.7518 20.4654C20.6149 20.5838 19.4701 20.6073 18.3292 20.5363L8.22755 20.635C6.53813 20.6587 3.4504 20.8709 3.47325 17.8983V15.2343L0 17.7957L0.0238983 20.3204C0.047749 23.3877 3.75552 24.0486 6.53611 24.0249L21.724 23.9551C25.1227 23.9314 27.2624 21.8547 27.2386 19.4712L27.2395 11.8762Z" fill="#BED2DD"/>
<path d="M12.4578 11.5232H3.61328V14.9685L15.5457 15.0157L12.4578 11.5232Z" fill="#BED2DD"/>
<path d="M52.6972 25.5867H42.7852L46.1372 28.8186C48.1337 28.8186 49.1314 28.7959 51.128 28.7959C51.6381 28.8397 52.1327 28.9926 52.5779 29.244L53.4811 29.9285L56.3572 27.2154C55.8957 26.705 55.3315 26.2964 54.701 26.0159C54.0706 25.7353 53.3881 25.5891 52.6972 25.5867Z" fill="#BED2DD"/>
<path d="M32.7773 6.87427L28.832 10.4366V24.1698H32.7773V6.87427Z" fill="#BED2DD"/>
<path fill-rule="evenodd" clip-rule="evenodd" d="M49.4609 29.8802C51.1504 29.6444 52.0519 29.6211 52.7892 30.3995L51.4097 31.8153L49.4609 29.8802Z" fill="#BED2DD"/>
<path d="M1.52175 29.1958C1.57322 29.1262 1.60725 29.0451 1.6211 28.9598C1.46203 29.0195 1.29417 29.0529 1.12421 29.0585C0.995849 29.0663 0.867168 29.0484 0.745845 29.006C0.624522 28.9637 0.512968 28.8977 0.417699 28.8119C0.322429 28.7261 0.245377 28.6227 0.19109 28.507C0.136803 28.3912 0.10636 28.2655 0.101562 28.138C0.102332 28.0168 0.126647 27.8969 0.173136 27.7849C0.206977 27.6534 0.272106 27.5321 0.362988 27.4308C0.46811 27.3258 0.594434 27.2443 0.733714 27.1914C0.872994 27.1385 1.02204 27.1154 1.17092 27.1239H1.1947C1.3538 27.124 1.51138 27.1556 1.65822 27.2164C1.80507 27.2772 1.93837 27.3659 2.05042 27.478C2.18109 27.6745 2.25496 27.9027 2.26405 28.138V28.5161H2.6446V29.0585H2.24015C2.19294 29.2516 2.0847 29.4245 1.93117 29.5518C1.6914 29.727 1.39613 29.8109 1.09934 29.7879H0.999991V29.3625C1.03011 29.3798 1.06461 29.3879 1.09934 29.3861C1.17899 29.384 1.25741 29.3663 1.32996 29.3336C1.4025 29.3009 1.46773 29.254 1.52175 29.1958ZM1.14108 27.5185C1.0558 27.5344 0.974853 27.5681 0.903549 27.6172C0.849963 27.6672 0.801939 27.7227 0.760402 27.7829C0.71453 27.8704 0.69012 27.9675 0.68895 28.0662C0.693292 28.1544 0.709304 28.2418 0.736625 28.3258C0.775051 28.4105 0.839235 28.4807 0.920169 28.5272C1.0011 28.5737 1.09469 28.594 1.18778 28.585C1.24421 28.5905 1.30114 28.5825 1.35373 28.5614C1.38834 28.5547 1.42105 28.5404 1.44969 28.52C1.47833 28.4995 1.50221 28.4733 1.51969 28.4429C1.6011 28.3429 1.64344 28.2173 1.63894 28.0888C1.64268 28.0251 1.63467 27.9613 1.61516 27.9005C1.60769 27.7986 1.56196 27.7031 1.48705 27.6331C1.41215 27.5631 1.31343 27.5235 1.21059 27.5223L1.14108 27.5185ZM4.34999 27.1654H4.96807V28.3928C4.97256 28.5088 4.9437 28.6234 4.88473 28.7237C4.82577 28.824 4.73918 28.9056 4.63519 28.9588C4.53319 29.0163 4.41939 29.0502 4.30232 29.0576H2.42406L2.11496 28.5152H4.03992C4.22973 28.5152 4.34902 28.4163 4.34902 28.2555V27.1702L4.34999 27.1654ZM3.49439 29.336H4.01712V29.7609H3.49439V29.336ZM4.37389 29.336H4.89662V29.7609H4.37389V29.336ZM5.39545 29.0528V28.5099H7.08483V28.3918C7.08901 28.259 7.05453 28.1275 6.98547 28.0137C6.85704 27.8291 6.66086 27.702 6.43897 27.6596C6.32127 27.6389 6.20159 27.6313 6.08219 27.637H5.91624V27.1644H6.10597C6.35732 27.1536 6.60831 27.194 6.84342 27.2829C7.02298 27.3401 7.19113 27.4276 7.34031 27.5421C7.44358 27.6514 7.52428 27.7801 7.57783 27.9202C7.63496 28.0215 7.66887 28.134 7.67719 28.2497C7.69378 28.3272 7.70171 28.4061 7.70096 28.4853V28.5089H8.36684V29.0518L5.39545 29.0528ZM9.00882 27.1644H9.6269V28.3918C9.63139 28.5079 9.60252 28.6225 9.54356 28.7228C9.48459 28.8231 9.39801 28.9047 9.29402 28.9579C9.18774 29.0047 9.0759 29.038 8.96114 29.0566H8.01007V28.5142H8.69972C8.88953 28.5142 9.00882 28.4154 9.00882 28.2545V27.1692V27.1644ZM8.15321 29.3351H8.67594V29.7599H8.15321V29.3351ZM9.03272 29.3351H9.55544V29.7599H9.03272V29.3351ZM11.4575 29.193C11.5089 29.1233 11.543 29.0422 11.5568 28.9569C11.3978 29.0166 11.2299 29.05 11.0599 29.0557C10.9066 29.0647 10.7533 29.0373 10.6128 28.9757C10.4723 28.9141 10.3486 28.8202 10.252 28.7016C10.1112 28.5464 10.0349 28.3439 10.0384 28.1351C10.0392 28.0139 10.0635 27.894 10.11 27.782C10.1339 27.647 10.2003 27.5231 10.2997 27.4279C10.4034 27.321 10.5296 27.2381 10.6692 27.1851C10.8088 27.1321 10.9586 27.1101 11.1077 27.121H11.1315C11.2871 27.1213 11.4409 27.1527 11.5839 27.2135C11.7268 27.2744 11.8559 27.3634 11.9633 27.4751C12.1123 27.6638 12.1957 27.8954 12.2009 28.1351V28.1828L12.177 28.7016C12.1963 28.7379 12.2046 28.7792 12.2009 28.8201C12.2013 28.9585 12.1717 29.0953 12.1143 29.2214C12.0568 29.3475 11.9728 29.4597 11.8679 29.5509C11.6281 29.726 11.3329 29.81 11.0362 29.7869H10.9368V29.3616C10.9607 29.3852 10.9845 29.3852 11.0362 29.3852C11.1156 29.383 11.1937 29.3652 11.2661 29.3327C11.3384 29.3001 11.4035 29.2537 11.4575 29.1958V29.193ZM11.0769 27.5156C10.9916 27.5315 10.9107 27.5652 10.8394 27.6143C10.7858 27.6643 10.7378 27.7198 10.6963 27.78C10.6504 27.8676 10.6258 27.9647 10.6247 28.0633C10.629 28.1515 10.645 28.2384 10.6724 28.3225C10.7083 28.409 10.772 28.4813 10.8536 28.5282C10.9352 28.5751 11.0301 28.5942 11.1236 28.5821C11.18 28.5858 11.2365 28.5778 11.2896 28.5585C11.3373 28.5585 11.389 28.511 11.4555 28.44C11.5268 28.3348 11.568 28.2125 11.5748 28.0859C11.5785 28.0222 11.5704 27.9584 11.5509 27.8976C11.5434 27.7957 11.4977 27.7002 11.4228 27.6302C11.3479 27.5602 11.2493 27.5206 11.1464 27.5194L11.0769 27.5156ZM14.6893 28.5022H17.1847C17.2239 28.3201 17.2036 28.1305 17.1267 27.9607C17.0499 27.7909 16.9204 27.6498 16.7573 27.558C16.4093 27.425 16.0363 27.3688 15.6642 27.3932L14.9983 27.4168L15.9255 26.0723H16.5437L16.0468 26.8744C16.1267 26.8706 16.2068 26.8785 16.2843 26.898C16.698 26.8912 17.0982 27.0437 17.4012 27.3234C17.662 27.6148 17.7985 27.9951 17.7819 28.3846V29.046H14.4786L14.3594 29.0219C13.8128 28.9233 13.5275 28.4793 13.5036 27.7473H14.1V27.795C14.0833 27.9676 14.1359 28.1395 14.2464 28.2738C14.357 28.4081 14.5165 28.4941 14.6903 28.5123L14.6893 28.5022ZM18.2311 26.0723H18.8969V29.0219L18.2311 29.046V26.0723ZM20.3707 29.046C20.3235 29.239 20.2151 29.4119 20.0616 29.5393C19.792 29.7279 19.4621 29.8116 19.1344 29.7749V29.3495C19.1635 29.3693 19.1989 29.3776 19.2339 29.3731C19.3142 29.3719 19.3935 29.3549 19.4669 29.3225C19.5403 29.2902 19.6064 29.2431 19.6611 29.1848C19.7459 29.0598 19.7877 28.9113 19.7804 28.7608V27.1567H20.3986V28.5012H20.8497V29.0436L20.3707 29.046ZM21.7729 26.45H22.2956V26.8754H21.7729V26.45ZM22.6524 26.45H23.1751V26.8754H22.6524V26.45ZM22.1555 27.1586H22.8691V28.1963C22.8768 28.2532 22.8699 28.3112 22.8491 28.3649C22.8282 28.4185 22.7941 28.4661 22.7498 28.5031H23.3918V29.046H20.7533V28.5031H21.7281C21.9895 28.5031 22.1565 28.4045 22.1565 28.1726L22.1555 27.1586ZM27.0757 28.5031H27.3372C27.5509 28.5031 27.6461 28.4048 27.6461 28.2439V27.1586H28.288V28.3856C28.2929 28.5046 28.2614 28.6227 28.1978 28.7237C28.1341 28.8248 28.0414 28.9043 27.9314 28.9521C27.8276 29.0054 27.7147 29.039 27.5985 29.0508H26.4308V29.0272C26.4308 29.0509 26.4308 29.0508 26.407 29.0508H25.2143V29.0272C25.1904 29.0272 25.1429 29.0508 25.115 29.0508H23.3083V28.5079H24.8537C25.0435 28.5079 25.1628 28.4096 25.1628 28.2488V27.1634H25.8048V28.3909C25.7945 28.4298 25.7864 28.469 25.7808 28.5089H26.1377C26.3275 28.5089 26.4468 28.4105 26.4468 28.2497V27.1644H27.0647V28.5089L27.0757 28.5031ZM26.4577 25.8604H26.9803V26.2852H26.4577V25.8604ZM26.0302 26.4264H26.553V26.8508H26.0302V26.4264ZM26.9097 26.4264H27.4326V26.8508H26.9097V26.4264ZM28.6687 26.0723H29.3347V29.0219L28.6687 29.046V26.0723Z" fill="#BED2DD"/>
</svg>
