<svg xmlns="http://www.w3.org/2000/svg" width="135" height="40" fill="none" xmlns:v="https://vecta.io/nano"><g clip-path="url(#B)"><path d="M130.2 40H4.73A4.74 4.74 0 0 1 0 35.27V4.73C0 2.12 2.12 0 4.73 0H130.2c2.61 0 4.8 2.12 4.8 4.73v30.54c0 2.61-2.2 4.73-4.8 4.73z" fill="#9aa6ad"/><path d="M134.03 35.27c0 2.12-1.71 3.83-3.83 3.83H4.73c-2.12 0-3.84-1.71-3.84-3.83V4.72A3.84 3.84 0 0 1 4.73.89H130.2c2.12 0 3.83 1.72 3.83 3.84v30.54z" fill="#021a29"/><path d="M35.63 14.88c-.41-.3-1.22-.71-2.76-1.07l-1.6-.31-2.66-.32c-.05 0-.09 0-.14-.01l-.65-1.51-.36-.87c-.01-.04-.03-.07-.04-.11-.45-1.1-.92-2.24-1.73-3.25-.9-1.12-2.09-1.73-3.34-1.73s-2.44.62-3.34 1.73c-.81 1.01-1.29 2.14-1.73 3.24-.02.04-.03.07-.04.11l-.36.87-.65 1.51c-.05 0-.1 0-.14.01l-2.67.32-1.59.31c-1.55.36-2.35.77-2.76 1.07-.15.11-.23.29-.2.48l.13 1 .78 5.05c.27 1.36.62 2.76 1.1 4.09a16.08 16.08 0 0 0 .64 1.54 12.11 12.11 0 0 0 8.07 6.4c.89.21 1.82.32 2.77.32a11.98 11.98 0 0 0 2.76-.32c3.61-.84 6.6-3.3 8.16-6.57.18-.4.35-.81.5-1.23 1.1-2.96 1.52-6.22 1.87-8.82l.19-1.48c.02-.18-.05-.36-.2-.47l-.01.02zm-13.29-1.94c-1.26 0-2.4.02-3.43.06.06-.13.11-.26.17-.4l.38-.92c.28-.69.55-1.36.89-1.96.16-.28.33-.54.53-.78.25-.31.78-.84 1.47-.84s1.21.53 1.47.84c.2.24.37.51.53.78.34.6.61 1.26.89 1.96l.38.92c.06.13.11.27.17.4-1.04-.04-2.18-.06-3.43-.06h-.02z" fill="url(#A)"/><g fill="#fcfcfc"><path d="M86.37 22.981c0 .47-.16.85-.48 1.12s-.81.41-1.46.41h-.67l.2 1.09h.87c.41.02.78-.05 1.11-.2s.61-.35.84-.61a2.88 2.88 0 0 0 .53-.92c.12-.35.19-.73.19-1.14v-3.13h-1.12v3.39l-.01-.01zm.6-6.151c-.23 0-.43.08-.59.24a.78.78 0 0 0-.24.57.8.8 0 0 0 .24.58.79.79 0 0 0 .59.24c.24 0 .41-.08.57-.24a.8.8 0 0 0 .24-.58.78.78 0 0 0-.24-.57.78.78 0 0 0-.57-.24zm3.21-.72h-1.02v6.8h1.02v-6.8zm7.02 2.6c.19 0 .35-.07.48-.2.14-.13.2-.3.2-.48 0-.2-.07-.36-.2-.5a.66.66 0 0 0-.48-.21c-.2 0-.37.07-.51.21a.72.72 0 0 0-.2.5c0 .19.07.35.2.48.14.14.31.2.51.2zm1.88 0c.2 0 .36-.07.5-.2s.2-.3.2-.48c0-.2-.07-.36-.2-.5a.67.67 0 0 0-.5-.21.67.67 0 0 0-.5.21c-.14.14-.2.31-.2.5s.07.35.2.48c.13.14.3.2.5.2zm7.22-1.55a.78.78 0 0 0 .57-.24.8.8 0 0 0 .24-.58.78.78 0 0 0-.24-.57.78.78 0 0 0-.57-.24c-.22 0-.43.08-.59.24a.78.78 0 0 0-.24.57.8.8 0 0 0 .24.58.79.79 0 0 0 .59.24zm1.55 1.26a1.89 1.89 0 0 0-.61-.51c-.24-.13-.52-.2-.84-.2-.27 0-.51.04-.73.13a1.7 1.7 0 0 0-.57.37 1.66 1.66 0 0 0-.37.56 1.78 1.78 0 0 0-.13.7c0 .47.11.85.32 1.14.21.3.56.46 1.03.47l1.37.04c0 .19-.04.35-.13.48-.1.14-.31.2-.65.2h-3.01a1.32 1.32 0 0 1-.62-.15c-.19-.1-.29-.3-.29-.59v-1.49h-1.09v1.44c0 .27-.04.47-.12.6s-.27.2-.56.2H95.8c-.28 0-.48-.06-.61-.17-.13-.12-.19-.32-.19-.62v-1.44h-1.06v1.6c0 .55.12.97.38 1.27.25.3.63.45 1.14.45h5.61c.41 0 .75-.13 1.02-.39a1.54 1.54 0 0 0 .66.31c.25.05.5.08.77.08h3.18c.28 0 .52-.06.73-.17a1.63 1.63 0 0 0 .51-.47c.13-.2.23-.43.3-.69a3.61 3.61 0 0 0 .1-.82v-.79c0-.28-.04-.55-.13-.82-.08-.27-.21-.5-.37-.71l.01-.01zm-1.67 1.6c-.15 0-.3-.04-.45-.11-.15-.06-.23-.19-.23-.38 0-.21.06-.38.17-.52.12-.14.32-.21.62-.21.16 0 .3.04.43.11s.23.17.32.29.16.25.21.4.08.3.08.45l-1.14-.04-.01.01zm6.05 4.03c-.2 0-.36.07-.5.2-.13.13-.2.3-.2.48 0 .2.07.36.2.5a.67.67 0 0 0 .5.21.67.67 0 0 0 .5-.21.72.72 0 0 0 .2-.5c0-.19-.07-.35-.2-.48-.14-.14-.3-.2-.5-.2zm2.12-3.02c0 .11 0 .22-.02.31a.51.51 0 0 1-.1.25c-.06.07-.14.12-.24.17-.11.04-.25.06-.43.06h-1.66c-.25 0-.45-.05-.59-.15s-.22-.33-.22-.68v-4.87h-1.06v5.05c0 .61.16 1.06.47 1.33.32.27.74.41 1.28.41h2.09c.53 0 .92-.16 1.18-.47s.38-.73.38-1.25v-1.6h-1.09v1.44h.01zm-.32 3.02a.71.71 0 0 0-.51.2c-.14.13-.2.3-.2.48 0 .2.07.36.2.5s.3.21.51.21a.63.63 0 0 0 .48-.21.72.72 0 0 0 .2-.5c0-.19-.07-.35-.2-.48a.65.65 0 0 0-.48-.2zm3.78-1.069c0 .47-.16.85-.48 1.12s-.81.41-1.46.41h-.27l.18 1.09h.47c.41.01.78-.06 1.11-.2s.61-.35.84-.61a2.88 2.88 0 0 0 .53-.92c.12-.35.19-.73.19-1.14v-3.13h-1.12v3.39l.01-.01zm7.4-2.071a2.03 2.03 0 0 0-.4-.6l-2.37-2.53-.71.73 2.39 2.52c.12.13.18.27.18.41 0 .1-.04.19-.13.27-.08.08-.21.12-.38.12h-3.47l.14 1.07h3.31c.52 0 .91-.14 1.18-.41.26-.27.4-.59.4-.96 0-.21-.04-.41-.13-.63l-.01.01zm-68.59 2.661a2.1 2.1 0 0 1-2.1-2.1v-10.52a2.1 2.1 0 1 1 4.2 0v10.52a2.1 2.1 0 0 1-2.1 2.1zm-7.36 2.1H44a2.1 2.1 0 1 1 0-4.2h4.21v-6.31a2.1 2.1 0 1 1 4.2 0v7.36c0 1.74-1.42 3.15-3.15 3.15z"/><path d="M61.87 29.881h-5.25a2.1 2.1 0 1 1 0-4.2h4.21v-6.31a2.1 2.1 0 1 1 4.2 0v7.35a3.17 3.17 0 0 1-3.16 3.16zm13.68-4.211h-5.23a3.19 3.19 0 0 1-3.18-3.18v-9.44a2.1 2.1 0 1 1 4.2 0v8.41h4.21a2.1 2.1 0 1 1 0 4.2v.01zM62.93 15.15a2.1 2.1 0 1 0 0-4.2 2.1 2.1 0 1 0 0 4.2zm6.31 16.83a2.1 2.1 0 1 0 0-4.2 2.1 2.1 0 0 0 0 4.2z"/></g></g><defs><linearGradient id="A" x1="22" y1="6" x2="22.354" y2="33.75" gradientUnits="userSpaceOnUse"><stop stop-color="#97d700"/><stop offset=".465" stop-color="#4fbc25"/><stop offset="1" stop-color="#009f4d"/></linearGradient><clipPath id="B"><path fill="#fff" d="M0 0h135v40H0z"/></clipPath></defs></svg>