<svg width="100" height="37" fill="none" xmlns="http://www.w3.org/2000/svg"><path d="M74.177 30.716h.191c.411.012.823-.01 1.23-.068h.184a1.718 1.718 0 0 1-.281-.229 2.385 2.385 0 0 1-.386-.53 2.835 2.835 0 0 1-.264-.782 14.857 14.857 0 0 1-.242-1.808 68.14 68.14 0 0 1-.206-3.321V13.75c0-1.485.138-3.024.293-4.696.006-.291.039-.581.1-.867a9.608 9.608 0 0 1 1.069-3.04 12.299 12.299 0 0 1 2.712-3.423 103.208 103.208 0 0 0-7.85 4.484 30.839 30.839 0 0 0-2.772 1.88c-.348.26-.675.547-.978.857a1.294 1.294 0 0 0-.351.57 8.78 8.78 0 0 0-.219.947 21.086 21.086 0 0 0-.241 2.168c-.058 1.044-.1 2.127-.127 3.211-.058 2.853 0 5.203.08 7.37.021 1.035.11 2.067.267 3.09.046.343.115.682.207 1.015.085.382.303.72.615.959h.058a9.623 9.623 0 0 0 3.6 1.973c1.086.32 2.214.48 3.346.473" fill="#BED2DD"/><path d="M97.093 18.582a2.105 2.105 0 0 1-.627 1.278c-.247.248-.51.48-.788.692-.499.382-.966.713-1.432 1.039a72.623 72.623 0 0 1-5.618 3.464 155.444 155.444 0 0 1-6.636 3.657 74.444 74.444 0 0 1-3.381 1.637 9.903 9.903 0 0 1-3.94.902h-.304c-.655 0-1.309-.054-1.955-.16a13.07 13.07 0 0 1-1.967-.473 93.376 93.376 0 0 0 7.269 4.21c1.297.68 2.3 1.142 3.292 1.592.501.237 1.023.428 1.559.57.112.013.226.013.339 0 .109.013.22.013.328 0 .325-.076.644-.173.955-.29a25.325 25.325 0 0 0 2.243-1.004 90.306 90.306 0 0 0 6.044-3.274 76.424 76.424 0 0 0 4.509-2.853 15.376 15.376 0 0 0 1.468-1.146c.188-.18.367-.37.534-.57.14-.162.232-.36.265-.57a9.532 9.532 0 0 0-.07-4.564 12.27 12.27 0 0 0-2.057-4.096" fill="#BED2DD"/><path d="M99.993 17.788a49.49 49.49 0 0 0-.316-6.514 9.543 9.543 0 0 0-.316-1.712 1.442 1.442 0 0 0-.352-.588 8.127 8.127 0 0 0-.788-.712c-.63-.5-1.287-.967-1.966-1.398a93.999 93.999 0 0 0-8.68-5.048A35.187 35.187 0 0 0 84.627.43c-.369-.17-.752-.31-1.144-.417a2.127 2.127 0 0 0-.454 0 1.314 1.314 0 0 0-.408.058 9.717 9.717 0 0 0-2.993 1.534 11.545 11.545 0 0 0-3.621 4.751l.253-.09c.211-.062.43-.093.65-.092.194.001.387.028.574.08.297.082.588.18.874.292.766.313 1.53.656 2.25.998a98.64 98.64 0 0 1 5.63 2.978c2.605 1.472 4.72 2.744 6.716 4.028a95.168 95.168 0 0 1 2.674 1.797c.722.5 1.369 1.1 1.92 1.782a11.776 11.776 0 0 1 2.3 5.077v-.713c.058-1.335.081-2.813.07-4.615" fill="#BED2DD"/><path d="M99.293 27.216a9.623 9.623 0 0 0 .207-1.996 9.878 9.878 0 0 0-.316-2.504 12.256 12.256 0 0 0-2.059-4.096 2.105 2.105 0 0 1-.625 1.272c-.248.244-.51.47-.788.68a39.64 39.64 0 0 1-1.432 1.037 46.858 46.858 0 0 1-3.663 2.283c5.964-.902 8.05 1.5 8.718 3.24M79.573 1.57a11.547 11.547 0 0 0-3.612 4.718l.253-.09a2.265 2.265 0 0 1 1.225-.012c.29.084.579.181.863.291.776.302 1.546.656 2.253 1.004 1.105.53 2.243 1.141 3.492 1.797-4.272-4.929-2.542-8.055-1.656-9.205a9.693 9.693 0 0 0-2.834 1.478M74.178 30.716h.2a7.38 7.38 0 0 0 1.222-.069h.183a1.719 1.719 0 0 1-.281-.229 2.374 2.374 0 0 1-.385-.53 2.835 2.835 0 0 1-.265-.782 14.857 14.857 0 0 1-.241-1.808c-.092-.981-.15-2.031-.207-3.321v-1.921c-.798 2.236-2.95 6.805-7.084 6.31a9.65 9.65 0 0 0 3.571 1.94c1.086.32 2.214.48 3.347.473M44.92 23.315a4.99 4.99 0 0 1-1.665 1.177 5.023 5.023 0 0 1-5.668-1.177 5.023 5.023 0 0 1-7.263 0 4.99 4.99 0 0 1-1.658 1.158 5.025 5.025 0 0 1-5.626-1.158 4.99 4.99 0 0 1-1.652 1.146 5.024 5.024 0 0 1-5.602-1.146 4.989 4.989 0 0 1-1.659 1.162 5.023 5.023 0 0 1-5.634-1.162l-.27.247c-1.376 1.356-2.743 2.692-4.11 4.058a.788.788 0 0 1-.998.238 15.695 15.695 0 0 1-1.417-.713c-.29-.158-.29-.346 0-.584 1.257-1.207 2.495-2.444 3.742-3.662.389-.386.808-.772 1.187-1.178a2.26 2.26 0 0 0 .38-2.632 2.403 2.403 0 0 0-.977-1.037 2.43 2.43 0 0 0-2.722.222 2.394 2.394 0 0 0-.792 1.18 2.259 2.259 0 0 0 .599 2.366c.439.442.885.875 1.337 1.297.23.218.27.396 0 .564-.499.267-.998.535-1.517.752a.683.683 0 0 1-.818-.227 15.9 15.9 0 0 1-1.097-1.158 4.442 4.442 0 0 1-.599-4.721c.3-.792.816-1.485 1.49-2.001a4.59 4.59 0 0 1 2.331-.92 4.83 4.83 0 0 1 3.486.785A4.759 4.759 0 0 1 9.7 19.148c.1.475.1.99.2 1.455.122.558.442 1.055.901 1.4.46.344 1.028.515 1.603.48a2.393 2.393 0 0 0 1.59-.722 2.356 2.356 0 0 0 .665-1.603v-1.742c0-.268.11-.426.389-.327.569.168 1.087.356 1.676.564a.577.577 0 0 1 .37.634v.831a2.385 2.385 0 0 0 .689 1.7 2.425 2.425 0 0 0 3.415.035 2.386 2.386 0 0 0 .724-1.686 2.329 2.329 0 0 0-.642-1.708 2.363 2.363 0 0 0-1.683-.736h-4.42c-.568 0-.628 0-.488-.584.155-.537.355-1.06.598-1.564a.477.477 0 0 1 .35-.237 39.302 39.302 0 0 1 4.719.089c1.101.183 2.1.754 2.81 1.609a4.58 4.58 0 0 1 1.061 3.042 2.422 2.422 0 0 0 .546 1.585c.366.448.88.753 1.45.86a2.403 2.403 0 0 0 2.019-.49 2.367 2.367 0 0 0 .864-1.875v-4.039c0-.742 0-.801.778-.603.447.133.884.299 1.307.495a.617.617 0 0 1 .37.653v3.513c-.004.606.227 1.19.644 1.632.418.442.99.708 1.6.744a2.429 2.429 0 0 0 1.61-.467c.463-.341.787-.836.914-1.394.042-.222.059-.448.05-.673v-9.838c0-.535 0-.574.54-.465.478.11.949.255 1.406.435a.806.806 0 0 1 .519.861v9.066c0 .62.24 1.215.672 1.662a2.436 2.436 0 0 0 3.346.15c.47-.406.764-.977.82-1.594v-4.325c0-.455 0-.515.47-.426.55.14 1.09.315 1.616.525a.597.597 0 0 1 .36.633v3.375a2.408 2.408 0 0 0 .712 1.837 2.446 2.446 0 0 0 1.851.707h6.825a2.604 2.604 0 0 0 2.236-.862 2.555 2.555 0 0 0 .557-2.315 2.385 2.385 0 0 0-.496-1.185 2.433 2.433 0 0 0-3.494-.32 2.367 2.367 0 0 0-.799 1.812v1.316a.63.63 0 0 1-.409.693c-.553.2-1.115.371-1.686.515-.09 0-.33-.12-.32-.188-.05-1.19 0-2.382.15-3.564a4.69 4.69 0 0 1 1.849-2.753 4.757 4.757 0 0 1 3.22-.86 4.836 4.836 0 0 1 2.919 1.327 4.766 4.766 0 0 1 1.431 2.85 5.048 5.048 0 0 1-1.267 4.326 4.77 4.77 0 0 1-3.572 1.514H49.37a5.409 5.409 0 0 1-2.413-.288 5.374 5.374 0 0 1-2.037-1.315M41.985 28.719c-.49 1.079-1.188 1.475-2.046 1.287a1.71 1.71 0 0 1-.989-.556 1.685 1.685 0 0 1-.418-1.048c-.014-.38.102-.755.33-1.06.23-.306.556-.526.928-.622.918-.258 1.566.108 2.175 1.217.618-1.079 1.287-1.485 2.175-1.237.359.097.675.309.901.602a1.674 1.674 0 0 1 0 2.042 1.697 1.697 0 0 1-.901.602c-.908.228-1.547-.148-2.175-1.267" fill="#BED2DD"/><path d="M27.172 27.997c.509-1.08 1.247-1.495 2.175-1.277.392.081.743.298.99.611a1.673 1.673 0 0 1-.085 2.17 1.7 1.7 0 0 1-1.035.534 1.768 1.768 0 0 1-1.227-.222 1.744 1.744 0 0 1-.768-.975c-.302.36-.636.69-.998.99a1.476 1.476 0 0 1-1.417.108 1.694 1.694 0 0 1-.866-.664 1.672 1.672 0 0 1 .152-2.05 1.7 1.7 0 0 1 .954-.532c.858-.208 1.437.139 2.175 1.277M55.585 12.952a1.7 1.7 0 0 1-1.196-.493 1.673 1.673 0 0 1-.49-1.19 1.682 1.682 0 0 1 .28-.94 1.719 1.719 0 0 1 2.62-.276 1.69 1.69 0 0 1 .388 1.838c-.125.31-.34.577-.62.766a1.715 1.715 0 0 1-.943.295" fill="#BED2DD"/></svg>