<svg xmlns="http://www.w3.org/2000/svg" width="135" height="40" fill="none" xmlns:v="https://vecta.io/nano"><path d="M130 0H5a5 5 0 0 0-5 5v30a5 5 0 0 0 5 5h125a5 5 0 0 0 5-5V5a5 5 0 0 0-5-5z" fill="#021a29"/><path d="M130 .8a4.2 4.2 0 0 1 4.2 4.2v30a4.2 4.2 0 0 1-4.2 4.2H5A4.2 4.2 0 0 1 .8 35V5A4.2 4.2 0 0 1 5 .8h125zm0-.8H5C2.25 0 0 2.25 0 5v30c0 2.75 2.25 5 5 5h125c2.75 0 5-2.25 5-5V5c0-2.75-2.25-5-5-5z" fill="#9aa6ad"/><mask id="A" fill="#fff"><path d="M64.72 16.79c-2.06 0-3.73 1.56-3.73 3.72s1.68 3.72 3.73 3.72 3.73-1.58 3.73-3.72-1.68-3.72-3.73-3.72zm0 5.97c-1.13 0-2.1-.93-2.1-2.25s.97-2.25 2.1-2.25 2.1.92 2.1 2.25-.97 2.25-2.1 2.25zm-8.14-5.97c-2.06 0-3.73 1.56-3.73 3.72s1.68 3.72 3.73 3.72 3.73-1.58 3.73-3.72-1.68-3.72-3.73-3.72zm0 5.97c-1.13 0-2.1-.93-2.1-2.25s.97-2.25 2.1-2.25 2.1.92 2.1 2.25-.97 2.25-2.1 2.25zm-9.68-4.83v1.58h3.77c-.11.89-.41 1.53-.86 1.99-.55.55-1.41 1.15-2.91 1.15-2.32 0-4.14-1.87-4.14-4.2s1.82-4.2 4.14-4.2a3.98 3.98 0 0 1 2.84 1.13l1.11-1.11c-.94-.9-2.2-1.59-3.96-1.59-3.18 0-5.86 2.59-5.86 5.77s2.68 5.77 5.86 5.77c1.72 0 3.01-.56 4.03-1.62 1.04-1.04 1.37-2.51 1.37-3.69 0-.37-.03-.7-.08-.99H46.9v.01zm39.6 1.23c-.31-.83-1.25-2.37-3.18-2.37s-3.51 1.51-3.51 3.72c0 2.08 1.58 3.72 3.69 3.72 1.7 0 2.69-1.04 3.1-1.65l-1.27-.84c-.42.62-1 1.03-1.83 1.03s-1.42-.38-1.8-1.13l4.97-2.06-.17-.42zm-5.07 1.24c-.04-1.44 1.11-2.17 1.94-2.17.65 0 1.2.32 1.38.79l-3.32 1.38zM77.39 24h1.63V13.07h-1.63V24zm-2.68-6.38h-.06c-.37-.44-1.07-.83-1.96-.83-1.86 0-3.56 1.63-3.56 3.73s1.7 3.7 3.56 3.7c.89 0 1.59-.39 1.96-.84h.06v.54c0 1.42-.76 2.18-1.99 2.18-1 0-1.62-.72-1.87-1.32l-1.42.59c.41.99 1.49 2.2 3.3 2.2 1.92 0 3.53-1.13 3.53-3.87v-6.67h-1.55v.61-.02zm-1.87 5.14c-1.13 0-2.07-.94-2.07-2.24s.94-2.27 2.07-2.27 1.99.96 1.99 2.27-.87 2.24-1.99 2.24zm21.31-9.69h-3.91V24h1.63v-4.14h2.28c1.81 0 3.58-1.31 3.58-3.39s-1.78-3.39-3.58-3.39v-.01zm.04 5.27h-2.32v-3.75h2.32c1.22 0 1.91 1.01 1.91 1.87s-.69 1.87-1.91 1.87v.01zm10.08-1.57c-1.18 0-2.4.52-2.91 1.67l1.45.6c.31-.6.89-.8 1.49-.8.84 0 1.7.51 1.72 1.41v.11a3.62 3.62 0 0 0-1.7-.42c-1.56 0-3.15.86-3.15 2.46 0 1.46 1.28 2.4 2.71 2.4 1.1 0 1.7-.49 2.08-1.07h.06v.84h1.57v-4.19c0-1.94-1.45-3.02-3.32-3.02v.01zm-.2 5.99c-.53 0-1.28-.27-1.28-.93 0-.84.93-1.17 1.73-1.17.72 0 1.05.15 1.49.37-.13 1.01-1 1.73-1.94 1.73zm9.25-5.75l-1.87 4.74h-.06l-1.94-4.74h-1.76l2.91 6.62-1.66 3.68h1.7l4.48-10.3h-1.81.01zM98.63 24h1.63V13.07h-1.63V24z"/></mask><path d="M64.72 16.79c-2.06 0-3.73 1.56-3.73 3.72s1.68 3.72 3.73 3.72 3.73-1.58 3.73-3.72-1.68-3.72-3.73-3.72zm0 5.97c-1.13 0-2.1-.93-2.1-2.25s.97-2.25 2.1-2.25 2.1.92 2.1 2.25-.97 2.25-2.1 2.25zm-8.14-5.97c-2.06 0-3.73 1.56-3.73 3.72s1.68 3.72 3.73 3.72 3.73-1.58 3.73-3.72-1.68-3.72-3.73-3.72zm0 5.97c-1.13 0-2.1-.93-2.1-2.25s.97-2.25 2.1-2.25 2.1.92 2.1 2.25-.97 2.25-2.1 2.25zm-9.68-4.83v1.58h3.77c-.11.89-.41 1.53-.86 1.99-.55.55-1.41 1.15-2.91 1.15-2.32 0-4.14-1.87-4.14-4.2s1.82-4.2 4.14-4.2a3.98 3.98 0 0 1 2.84 1.13l1.11-1.11c-.94-.9-2.2-1.59-3.96-1.59-3.18 0-5.86 2.59-5.86 5.77s2.68 5.77 5.86 5.77c1.72 0 3.01-.56 4.03-1.62 1.04-1.04 1.37-2.51 1.37-3.69 0-.37-.03-.7-.08-.99H46.9v.01zm39.6 1.23c-.31-.83-1.25-2.37-3.18-2.37s-3.51 1.51-3.51 3.72c0 2.08 1.58 3.72 3.69 3.72 1.7 0 2.69-1.04 3.1-1.65l-1.27-.84c-.42.62-1 1.03-1.83 1.03s-1.42-.38-1.8-1.13l4.97-2.06-.17-.42zm-5.07 1.24c-.04-1.44 1.11-2.17 1.94-2.17.65 0 1.2.32 1.38.79l-3.32 1.38zM77.39 24h1.63V13.07h-1.63V24zm-2.68-6.38h-.06c-.37-.44-1.07-.83-1.96-.83-1.86 0-3.56 1.63-3.56 3.73s1.7 3.7 3.56 3.7c.89 0 1.59-.39 1.96-.84h.06v.54c0 1.42-.76 2.18-1.99 2.18-1 0-1.62-.72-1.87-1.32l-1.42.59c.41.99 1.49 2.2 3.3 2.2 1.92 0 3.53-1.13 3.53-3.87v-6.67h-1.55v.61-.02zm-1.87 5.14c-1.13 0-2.07-.94-2.07-2.24s.94-2.27 2.07-2.27 1.99.96 1.99 2.27-.87 2.24-1.99 2.24zm21.31-9.69h-3.91V24h1.63v-4.14h2.28c1.81 0 3.58-1.31 3.58-3.39s-1.78-3.39-3.58-3.39v-.01zm.04 5.27h-2.32v-3.75h2.32c1.22 0 1.91 1.01 1.91 1.87s-.69 1.87-1.91 1.87v.01zm10.08-1.57c-1.18 0-2.4.52-2.91 1.67l1.45.6c.31-.6.89-.8 1.49-.8.84 0 1.7.51 1.72 1.41v.11a3.62 3.62 0 0 0-1.7-.42c-1.56 0-3.15.86-3.15 2.46 0 1.46 1.28 2.4 2.71 2.4 1.1 0 1.7-.49 2.08-1.07h.06v.84h1.57v-4.19c0-1.94-1.45-3.02-3.32-3.02v.01zm-.2 5.99c-.53 0-1.28-.27-1.28-.93 0-.84.93-1.17 1.73-1.17.72 0 1.05.15 1.49.37-.13 1.01-1 1.73-1.94 1.73zm9.25-5.75l-1.87 4.74h-.06l-1.94-4.74h-1.76l2.91 6.62-1.66 3.68h1.7l4.48-10.3h-1.81.01zM98.63 24h1.63V13.07h-1.63V24z" fill="#fff" stroke="#fcfcfc" stroke-width="2" mask="url(#A)"/><path d="M10.44 7.539c-.29.31-.46.79-.46 1.4v22.12c0 .62.17 1.1.46 1.4l.07.07 12.39-12.39v-.29L10.51 7.459l-.07.07v.01z" fill="url(#B)"/><path d="M27.029 24.28l-4.13-4.13v-.29l4.13-4.13.09.05 4.89 2.78c1.4.79 1.4 2.09 0 2.89l-4.89 2.78-.09.05z" fill="url(#C)"/><path d="M27.12 24.22L22.9 20 10.44 32.46c.46.49 1.22.55 2.08.06l14.61-8.3" fill="url(#D)"/><path d="M27.12 15.78l-14.61-8.3c-.86-.49-1.62-.43-2.08.06L22.89 20l4.22-4.22h.01z" fill="url(#E)"/><g fill="#000"><path opacity=".2" d="M27.03 24.129l-14.52 8.25c-.81.46-1.54.43-2 .01l-.07.07.07.07c.47.42 1.19.45 2-.01l14.61-8.3-.09-.09z"/><path opacity=".12" d="M10.44 32.32c-.29-.31-.46-.79-.46-1.4v.15c0 .62.17 1.1.46 1.4l.07-.07-.07-.07v-.01zM32.01 21.3l-4.99 2.83.09.09L32 21.44c.7-.4 1.05-.92 1.05-1.44-.06.47-.41.94-1.05 1.3h.01z"/></g><g fill="#fff"><path opacity=".25" d="M12.51 7.619l19.5 11.08c.63.36.99.82 1.05 1.3 0-.52-.35-1.05-1.05-1.44l-19.5-11.08c-1.4-.79-2.54-.13-2.54 1.47v.15c0-1.6 1.14-2.26 2.54-1.47v-.01z"/><g stroke="#fcfcfc" stroke-width=".2" stroke-miterlimit="10"><path d="M79.24 35.09c-.25 0-.47-.04-.65-.13a1.42 1.42 0 0 1-.49-.35c-.57.32-1.19.48-1.87.48-.38 0-.66-.05-.85-.15s-.28-.25-.28-.43c0-.2.05-.36.16-.49a1.42 1.42 0 0 0 .53.28c.2.06.44.09.73.09a4.84 4.84 0 0 0 1.28-.19c-.24-.41-.43-.83-.59-1.26s-.24-.74-.24-.91c0-.3.16-.51.49-.61l.34 1.17a6.78 6.78 0 0 0 .29.77c.09.2.2.39.32.56.13.18.25.3.38.37s.28.1.45.1c.05 0 .08.03.08.08v.55c0 .05-.03.08-.08.08v-.01z"/><path d="M81.75 32.991a.39.39 0 0 1 .23.07l-.29.67-.15.3c.21.13.4.22.58.28a2.14 2.14 0 0 0 .58.08c.05 0 .08.03.08.08v.55c0 .05-.03.08-.08.08a2.11 2.11 0 0 1-1.46-.54l-.15.2c-.06.07-.29.14-.67.22s-.76.12-1.13.12c-.05 0-.08-.03-.08-.08v-.55c0-.05.03-.08.08-.08.38 0 .71-.02.97-.05s.45-.09.56-.17.27-.32.49-.74l.16-.3c.05-.1.15-.15.29-.15l-.01.01zm-.83 3.28c-.11.18-.29.39-.55.63-.28-.22-.48-.41-.61-.56l.6-.62c.05.06.24.24.57.56l-.01-.01zm1.4-.13c-.11.17-.3.38-.56.63-.27-.21-.47-.4-.61-.56a9.62 9.62 0 0 0 .6-.62c.05.06.24.25.57.56v-.01z"/><path d="M82.81 35.09c-.05 0-.08-.03-.08-.08v-.55c0-.05.03-.08.08-.08.23 0 .42-.02.58-.07.16-.04.29-.11.38-.19s.24-.32.43-.7l.16-.3c.05-.1.15-.15.28-.15a.39.39 0 0 1 .23.07 10.67 10.67 0 0 1-.45.98c.21.13.41.22.58.27s.37.08.58.08c.05 0 .08.03.08.08V35c0 .05-.03.08-.08.08a2.11 2.11 0 0 1-1.46-.54l-.15.2c-.06.08-.21.16-.44.23a2.48 2.48 0 0 1-.73.11l.01.01zm1.96-3.32c-.14.21-.34.43-.6.68-.27-.22-.5-.42-.66-.6l.65-.68.61.6z"/><path d="M85.64 35.091c-.05 0-.08-.03-.08-.08v-.55c0-.05.03-.08.08-.08.42 0 .8-.02 1.12-.07a5.54 5.54 0 0 0 .85-.17c.24-.07.5-.17.76-.31-.11-.34-.32-.67-.64-.96-.31-.3-.75-.58-1.3-.85-.07.02-.15.03-.23.03-.16 0-.3-.06-.4-.17-.11-.11-.16-.26-.16-.43 0-.14.03-.31.1-.53s.11-.34.15-.36l1.89-.94 1.4-.6c.09.08.14.2.14.35v.08c-.03.21-.16.37-.39.46l-2.94 1.27c.47.11.92.3 1.35.56a3.94 3.94 0 0 1 1.03.88c.26.33.38.63.38.92 0 .49-.26.87-.77 1.13s-1.29.39-2.33.39l-.01.03zm13.52-.001c-.62 0-1.15-.22-1.58-.66-.38.2-.84.36-1.38.48-.55.12-1.14.18-1.78.18-.73 0-1.28-.13-1.67-.39s-.58-.66-.58-1.18c0-.38.04-.72.13-1.02h.33l-.02.19-.01.27c0 .36.07.63.2.83.14.2.35.34.65.45.3.1.69.15 1.18.15a8.89 8.89 0 0 0 1.65-.17c.58-.11.95-.23 1.11-.34.08-.05.13-.11.18-.17.04-.05.09-.13.15-.24l.13-.24c.06-.1.15-.14.29-.14.09 0 .16.02.22.07l-.38.84a2.41 2.41 0 0 0 .58.29 2.04 2.04 0 0 0 .63.09c.05 0 .08.03.08.08v.55c0 .05-.03.08-.08.08h-.03zm-4.06-3.45c-.11.18-.29.39-.55.63-.28-.22-.48-.41-.61-.56l.6-.62c.07.08.26.26.56.56v-.01zm1.4-.13c-.11.18-.3.39-.56.63-.26-.21-.46-.4-.61-.57.07-.06.26-.27.6-.62a10.54 10.54 0 0 0 .57.56z"/><path d="M102.17 33.89a5.55 5.55 0 0 0-.13-.73c-.19.16-.4.29-.63.38a1.89 1.89 0 0 1-.69.14c-.27 0-.49-.1-.66-.31s-.25-.46-.25-.77c0-.47.11-.89.34-1.25s.5-.54.81-.54.6.11.85.34.44.55.59.98c.14.42.22.88.22 1.36 0 .21-.11.52-.32.94-.37.23-.79.4-1.26.51-.46.11-1.07.16-1.83.16-.06 0-.09-.03-.09-.09v-.53c0-.06.03-.09.09-.09.67 0 1.23-.04 1.69-.12s.89-.21 1.27-.38zm-1.35-2.3c-.19 0-.34.09-.47.26-.12.17-.19.36-.19.57 0 .19.06.33.19.42.12.09.32.13.6.13.3 0 .63-.08.98-.23-.12-.37-.28-.66-.46-.86-.19-.2-.4-.3-.64-.3l-.01.01zm.79-2c-.14.21-.34.43-.6.68-.27-.22-.5-.42-.66-.6l.65-.68.61.6zm3.49 4.87v.55c0 .05-.03.08-.08.08-.36 0-.67-.07-.91-.21s-.37-.34-.4-.59l-.32-3.65-.09-1.23a4.12 4.12 0 0 1 .62-.51l.1 3.99.03 1.27c.29.16.61.24.96.24.05 0 .08.03.08.08l.01-.02z"/><path d="M105.06 35.09c-.05 0-.08-.03-.08-.08v-.55c0-.05.03-.08.08-.08a9.19 9.19 0 0 0 1.31-.09c.42-.06.74-.14.95-.25-.06-.25-.17-.59-.33-1.02-.12-.32-.18-.53-.18-.62 0-.14.06-.27.17-.42a1.63 1.63 0 0 1 .44-.37l.1.54.12.52c.04.17.07.34.09.5a2.42 2.42 0 0 1 .04.45c0 .21-.11.53-.32.94-.25.15-.6.28-1.05.37s-.89.14-1.33.14l-.01.02zm1.53 1.17c-.11.18-.29.39-.55.63-.28-.22-.48-.41-.61-.56l.6-.62c.05.06.24.24.56.56v-.01zm1.4-.13c-.11.17-.3.38-.55.63-.27-.21-.47-.4-.61-.56a9.62 9.62 0 0 0 .6-.62c.05.06.24.25.57.56l-.01-.01zm1.15.85c-.15 0-.35-.06-.61-.17-.26-.12-.46-.23-.61-.35l.13-.31c.34.07.63.1.87.1.46 0 .86-.14 1.19-.41s.58-.68.75-1.2c-.08-.2-.17-.39-.28-.58a8.13 8.13 0 0 1-.47-.9c-.1-.23-.15-.42-.15-.57s.05-.28.14-.38c.1-.09.23-.18.4-.27.04.17.11.36.19.56l.23.63.2.64c.06.21.09.4.09.58a3.26 3.26 0 0 1-.27 1.33c-.18.41-.43.73-.75.96s-.67.34-1.05.34zm3.62-1.89c-.38 0-.66-.05-.85-.15s-.28-.25-.28-.43c0-.2.05-.36.16-.49a1.42 1.42 0 0 0 .53.28c.2.06.44.09.73.09a4.22 4.22 0 0 0 1.25-.19 6.2 6.2 0 0 0-.38-.85l-.32-.58c-.09-.16-.16-.3-.2-.41s-.06-.22-.06-.34c0-.3.16-.51.49-.61l.3.72.29.64.23.55c.06.17.09.33.09.47 0 .09-.03.22-.09.39s-.14.35-.24.55c-.45.24-1 .36-1.67.36h.02zm-2.01-22.54c-.16 0-.38-.06-.65-.19-.28-.12-.5-.25-.65-.37l.14-.33a5.13 5.13 0 0 0 .94.11c.5 0 .93-.15 1.28-.45s.63-.73.82-1.3l-.3-.63-.51-.97c-.11-.25-.16-.45-.16-.62s.05-.31.15-.41.24-.2.43-.29l.2.61.25.68.22.69a2.44 2.44 0 0 1 .09.62c0 .52-.1 1-.29 1.44-.2.44-.47.79-.81 1.04s-.72.37-1.14.37h-.01zm1.49-6.77a5.55 5.55 0 0 1-.64.73c-.3-.23-.54-.45-.72-.65l.7-.73c.21.23.43.45.66.65z"/><path d="M114.8 7.18v.62l-.07 2.62-.46.08-.27-5.82v-.13c0-.21.05-.38.15-.5.11-.12.27-.21.5-.26 0 .04.02.08.03.12 0 .04.12.39.33 1.07l-.27.23v.05l.06 1.91v.01z"/></g></g><defs><linearGradient id="B" x1="21.8" y1="8.709" x2="5.019" y2="25.489" gradientUnits="userSpaceOnUse"><stop stop-color="#00a1ff"/><stop offset=".26" stop-color="#00beff"/><stop offset=".51" stop-color="#00d2ff"/><stop offset=".76" stop-color="#00dfff"/><stop offset="1" stop-color="#00e3ff"/></linearGradient><linearGradient id="C" x1="33.829" y1="20" x2="9.639" y2="20" gradientUnits="userSpaceOnUse"><stop stop-color="#ffe000"/><stop offset=".41" stop-color="#ffbd00"/><stop offset=".78" stop-color="orange"/><stop offset="1" stop-color="#ff9c00"/></linearGradient><linearGradient id="D" x1="24.83" y1="22.3" x2="2.069" y2="45.05" gradientUnits="userSpaceOnUse"><stop stop-color="#ff3a44"/><stop offset="1" stop-color="#c31162"/></linearGradient><linearGradient id="E" x1="7.3" y1=".179" x2="17.46" y2="10.34" gradientUnits="userSpaceOnUse"><stop stop-color="#32a071"/><stop offset=".07" stop-color="#2da771"/><stop offset=".48" stop-color="#15cf74"/><stop offset=".8" stop-color="#06e775"/><stop offset="1" stop-color="#00f076"/></linearGradient></defs></svg>