<svg xmlns="http://www.w3.org/2000/svg" width="135" height="40" fill="none" xmlns:v="https://vecta.io/nano"><g clip-path="url(#A)"><path d="M130.2 40H4.73A4.74 4.74 0 0 1 0 35.27V4.73C0 2.12 2.12 0 4.73 0H130.2c2.61 0 4.8 2.12 4.8 4.73v30.54c0 2.61-2.2 4.73-4.8 4.73z" fill="#9aa6ad"/><path d="M134.03 35.27c0 2.12-1.71 3.83-3.83 3.83H4.73c-2.12 0-3.84-1.71-3.84-3.83V4.72A3.84 3.84 0 0 1 4.73.89H130.2c2.12 0 3.83 1.72 3.83 3.84v30.54z" fill="#021a29"/><g fill="#fff"><path d="M92.858 22.361l.248.847.102.365c.044.117.058.263.088.38l.073.38c.015.117.044.233.044.336 0 .029 0 .073.015.117v.146a2.76 2.76 0 0 1-.117.774 3.15 3.15 0 0 1-.321.715c-.131.234-.307.453-.496.657-.19.219-.394.409-.628.598-.219.19-.467.35-.715.511a5.56 5.56 0 0 1-.759.423l-.394-.803c.321-.161.628-.35.934-.555a4.62 4.62 0 0 0 .803-.686 3.59 3.59 0 0 0 .569-.788 1.84 1.84 0 0 0 .219-.861v-.073c0-.029 0-.073-.015-.102l-.044-.307c-.015-.117-.044-.234-.073-.35l-.088-.35-.088-.336-.234-.774.876-.263zm.219-1.869l-.745.744-.759-.759.745-.745.759.759zm1.942 4.832l.088-1.971V21.63l-.058-1.416-.088-1.066-.073-.686-.029-.248.905-.131c0 .015.029.204.073.555l.058.569.044.657.044.657.029.599.015 1.912-.088 2.336-.92-.044zm12.495-.744a1.85 1.85 0 0 1-.292-.496c-.803.847-2.087 1.27-3.824 1.27-.935 0-1.694-.117-2.307-.336s-1.051-.555-1.328-1.022c-.088-.146-.161-.307-.204-.467a2.79 2.79 0 0 1-.088-.482 2.43 2.43 0 0 1 0-.467c.015-.146.044-.292.073-.438l.117-.394.102-.307c.029-.088.058-.146.087-.204.029-.044.044-.073.044-.088l.789.438-.044.088a1.33 1.33 0 0 0-.088.233l-.102.336c-.029.131-.058.263-.058.394-.015.131 0 .277.029.423a1.37 1.37 0 0 0 .146.409c.19.306.511.54.992.701s1.095.234 1.84.234c.671 0 1.255-.058 1.722-.175s.861-.307 1.183-.555a2.21 2.21 0 0 0 .365-.365 2.44 2.44 0 0 0 .262-.409c.073-.146.132-.277.175-.423l.132-.423.876.234-.044.204-.058.248c-.044.175-.059.336-.044.453 0 .131.029.263.058.409a.85.85 0 0 0 .19.38c.219.277.584.409 1.095.409a.43.43 0 0 1 .452.453.43.43 0 0 1-.452.453h-.044c-.788.029-1.372-.219-1.752-.715zm-3.941-3.752l-.745.745-.759-.745.745-.744.759.744zm1.883 0l-.745.745-.759-.759.745-.745.759.759z"/><path d="M108.916 24.887c0-.131.043-.234.131-.321a.45.45 0 0 1 .321-.131l.934-.044a4.81 4.81 0 0 0 .759-.131c.219-.044.409-.102.57-.175a1.29 1.29 0 0 0 .35-.175c.044-.029.073-.058.102-.088s.044-.058.073-.088h-.467a2.7 2.7 0 0 1-.482-.044c-.16-.029-.306-.058-.438-.117l-.379-.19a1.26 1.26 0 0 1-.292-.263 1.18 1.18 0 0 1-.131-.204c-.044-.073-.073-.175-.103-.277s-.043-.219-.043-.35 0-.263.029-.423a2.74 2.74 0 0 1 .19-.642 3.04 3.04 0 0 1 .306-.526 1.37 1.37 0 0 1 .467-.409 1.17 1.17 0 0 1 .526-.131c.408 0 .773.175 1.095.54.146.161.262.336.379.54a4.39 4.39 0 0 1 .263.657 3.04 3.04 0 0 1 .131.73 3.19 3.19 0 0 1 0 .744c-.014.117-.044.248-.073.365l-.044.146a.75.75 0 0 1-.087.204 1.96 1.96 0 0 1-.175.248 1.61 1.61 0 0 1-.278.263c-.146.117-.335.219-.554.307a4.5 4.5 0 0 1-.745.219 7.9 7.9 0 0 1-.876.131l-.934.044h-.073a.43.43 0 0 1-.321-.131c-.073-.044-.131-.146-.131-.277zm3.05-6.292l-.744.745-.759-.759.744-.745.759.759zm-.627 2.482c-.044 0-.088.015-.146.058a.73.73 0 0 0-.175.19 1.49 1.49 0 0 0-.161.306c-.044.117-.088.263-.117.409-.044.233-.014.394.073.511.059.073.146.131.263.175s.263.073.423.088l.438.015.351-.015c-.015-.292-.073-.584-.176-.847a1.81 1.81 0 0 0-.379-.657c-.044-.058-.117-.102-.19-.161-.029-.044-.102-.073-.204-.073zm5.255 4.262c-.336 0-.628-.044-.861-.117a1.63 1.63 0 0 1-.613-.365 1.18 1.18 0 0 1-.234-.321c-.058-.117-.087-.233-.117-.35a1.31 1.31 0 0 1-.043-.321v-.263-.088-.161-.438-.642-.759l-.015-.817-.029-.832-.044-.73a4.43 4.43 0 0 0-.073-.555l.905-.161a5.13 5.13 0 0 1 .073.569l.058.744.03.832.014.847v.774.657.482.219.088l.015.35c.014.102.058.19.131.248.132.146.394.219.774.219h.044a.39.39 0 0 1 .175.044c.058.029.102.058.146.102s.073.088.102.146a.39.39 0 0 1 .044.175.43.43 0 0 1-.132.321c-.073.088-.219.102-.35.102z"/><path d="M115.908 24.886a.43.43 0 0 1 .452-.453h.511.351l.379-.015c.132 0 .248-.029.38-.058l.336-.102a1.07 1.07 0 0 0 .277-.161.65.65 0 0 0 .175-.219c.058-.131.073-.321.058-.555a4.52 4.52 0 0 0-.189-.847c-.029-.102-.073-.204-.117-.321l-.131-.321-.146-.35.817-.409.044.088c.029.058.058.146.102.234l.146.35c.058.131.102.277.146.423.292.876.321 1.562.102 2.058s-.598.817-1.153.978a1.6 1.6 0 0 1-.321.058l-.394.029-.38.015h-.277-.672-.044a.43.43 0 0 1-.321-.131c-.102-.058-.131-.161-.131-.292zm2.204 2.029l-.744.745-.759-.745.744-.744.759.744zm1.898.015l-.745.744-.759-.759.745-.744.759.759zm2.832-4.569l.248.847.102.365c.044.117.059.263.088.38l.073.38c.014.117.044.234.044.336 0 .029 0 .073.014.117v.146a2.76 2.76 0 0 1-.117.774 3.13 3.13 0 0 1-.321.715 3.51 3.51 0 0 1-.496.657c-.19.219-.394.409-.628.599-.219.19-.467.35-.715.511a5.51 5.51 0 0 1-.759.423l-.394-.803a8.77 8.77 0 0 0 .934-.555 4.61 4.61 0 0 0 .803-.686 3.61 3.61 0 0 0 .569-.788 1.84 1.84 0 0 0 .219-.861v-.073c0-.029 0-.073-.014-.102l-.044-.306c-.015-.117-.044-.234-.073-.35l-.088-.35-.087-.336-.234-.774.876-.263zm3.635 2.963a2.5 2.5 0 0 1-.526-.058l-.598-.146a3.81 3.81 0 0 1-.541-.19c-.161-.073-.292-.146-.364-.219l.379-.861c.117.073.248.146.409.219a2.61 2.61 0 0 0 .511.175l.554.117a2.42 2.42 0 0 0 .555.015 1.84 1.84 0 0 0 .496-.117c.146-.058.278-.16.38-.277.088-.088.088-.277.029-.525-.029-.146-.087-.307-.16-.467a3.47 3.47 0 0 0-.278-.496 5.04 5.04 0 0 0-.35-.482 3.87 3.87 0 0 0-.409-.438l-.423-.35c-.146-.102-.292-.19-.423-.248l.364-.832a3.57 3.57 0 0 1 .541.321 5.11 5.11 0 0 1 .54.438c.175.161.335.35.496.54a3.97 3.97 0 0 1 .423.599c.132.204.234.409.336.613a3.52 3.52 0 0 1 .204.599 1.85 1.85 0 0 1 .059.467 1.4 1.4 0 0 1-.044.365c-.029.102-.058.204-.102.277-.044.088-.088.146-.132.204-.277.336-.671.569-1.182.672-.117.029-.234.058-.365.058-.117.029-.263.029-.379.029zm-83.844-4.938a1.43 1.43 0 0 0 1.051-.438 1.82 1.82 0 0 0 .219-.277c.058.102.131.19.204.277a1.4 1.4 0 0 0 1.036.438c.409 0 .759-.146 1.036-.438a1.42 1.42 0 0 0 .423-1.051 1.42 1.42 0 0 0-1.46-1.46 1.42 1.42 0 0 0-1.036.423c-.088.088-.161.175-.204.277a1.31 1.31 0 0 0-.219-.277 1.42 1.42 0 0 0-1.051-.423 1.4 1.4 0 0 0-1.036.438c-.277.292-.438.628-.438 1.037a1.48 1.48 0 0 0 .423 1.051 1.48 1.48 0 0 0 1.051.423zm29.969-2.51c-.35 0-.642.117-.861.379a1.28 1.28 0 0 0-.35.905c0 .248.073.628.19 1.124.117.482.19.861.19 1.124 0 .89-.642 1.343-1.912 1.343h-.453-.73-.307c-1.139 0-2.219-.496-3.255-1.489l-2.438-2.423-3.825-3.46c-.175-.146-.263-.307-.263-.482s.117-.307.321-.394c2.131-.832 4.423-1.533 6.846-2.087.759-.161 1.124-.569 1.124-1.197 0-.832-.482-1.255-1.46-1.255a3.17 3.17 0 0 0-.584.073c-3.562.832-6.16 1.766-7.824 2.774-.745.453-1.109 1.197-1.109 2.219 0 .496.073.891.248 1.197.292.511 1.241 1.474 2.861 2.861 1.445 1.241 2.16 2.087 2.16 2.525 0 .599-.613.949-1.839 1.08-.263.029-1.255.029-2.992.029h-.365-.423c-1.153 0-1.81-.467-2-1.401l-.19-.978c-.161-.38-.453-.569-.891-.569-.394 0-.715.248-.934.759l-.701 1.431c-.759.963-2.774 1.445-6.029 1.445H43.23c-2.219 0-3.737-.248-4.554-.774-.555-.35-.832-.89-.832-1.606 0-.204.044-.526.131-.934.087-.423.131-.73.131-.934 0-.628-.306-.934-.934-.934-.584 0-1.051.511-1.358 1.533a7.59 7.59 0 0 0-.336 2.233c0 2.978 2.54 4.467 7.62 4.467 4.876 0 7.912-.759 9.051-2.292.496 1.051 1.474 1.576 2.919 1.576h.146.744.029c2.204 0 3.752-.131 4.657-.409 1.387-.423 2.233-1.299 2.555-2.613 1.431 2.014 3.211 3.022 5.328 3.022h.131.73.292c1.431 0 2.54-.423 3.358-1.255s1.212-1.971 1.212-3.416c-.015-2.131-.555-3.197-1.65-3.197zm-2.116 9.459a1.4 1.4 0 0 0-1.036.438c-.19.19-.307.409-.38.642a1.45 1.45 0 0 0-.379-.642 1.4 1.4 0 0 0-1.036-.438 1.48 1.48 0 0 0-1.051.423c-.292.277-.438.628-.438 1.036s.146.759.438 1.051a1.43 1.43 0 0 0 1.051.438c.409 0 .759-.146 1.036-.438.19-.19.292-.409.365-.657.073.248.175.467.365.657a1.4 1.4 0 0 0 1.036.438 1.43 1.43 0 0 0 1.051-.438 1.43 1.43 0 0 0 .438-1.051c0-.409-.146-.759-.438-1.036s-.598-.423-1.022-.423zm18.101-7.387a2.53 2.53 0 0 0-2.263-1.255c-.817 0-1.62.438-2.438 1.314-.161.19-.569.745-1.212 1.664-.292.423-.569.715-.847.847-.263.146-.642.219-1.139.219h-.336c-1.358 0-2.014-.832-2.014-2.482v-8.656c0-1.153-.438-1.723-1.314-1.723-.438 0-.788.19-1.022.555-.204.321-.292.715-.292 1.168l.292 8.189c.073 2.044.292 3.416.628 4.16.569 1.212 1.708 1.81 3.416 1.81h.131.73.073a3.28 3.28 0 0 0 2.409-.993c.745.89 1.693 1.328 2.876 1.328.92 0 1.664-.365 2.219-1.109.511-.672.759-1.46.759-2.409.029-1.051-.219-1.927-.657-2.628zm-2.379 3.649c-.292 0-.584-.088-.934-.248-.394-.204-.584-.438-.584-.686 0-.336.161-.657.496-.949s.672-.453.993-.453c.336 0 .599.161.803.467.161.263.248.569.248.934 0 .628-.321.934-1.022.934z"/></g><path d="M20.08 33.159c7.224 0 13.08-5.856 13.08-13.079S27.303 7 20.08 7 7 12.856 7 20.08s5.856 13.08 13.08 13.08z" fill="#0091ea"/><g fill="#fff"><path d="M28.108 18.532c-.102-2.482-2.146-4.438-4.642-4.438-1.387 0-2.642.613-3.489 1.577-.847-.963-2.102-1.577-3.489-1.577-2.452 0-4.467 1.898-4.642 4.306 0 .058-.015.117-.015.175v5.255A1.17 1.17 0 0 0 13 24.999h.029a1.17 1.17 0 0 0 1.168-1.168v-5.08a2.31 2.31 0 0 1 2.306-2.306 2.31 2.31 0 0 1 2.307 2.307v4.292a1.17 1.17 0 0 0 1.168 1.168h.029a1.17 1.17 0 0 0 1.168-1.168v-4.292a2.31 2.31 0 0 1 2.306-2.306 2.31 2.31 0 0 1 2.306 2.307v5.095c0 .642.511 1.153 1.153 1.153h.029c.642 0 1.153-.511 1.153-1.153v-5.197c-.015-.044-.015-.088-.015-.117zM23.7 25.437c-.058-.088-.219.088-.219.088-.642.701-1.985 1.153-3.372 1.153s-2.715-.452-3.372-1.153c0 0-.175-.175-.219-.088-.073.102.029.263.029.263.832 1.197 2.087 1.723 3.562 1.723s2.73-.54 3.562-1.723c-.015.015.102-.146.029-.263z"/></g></g><defs><clipPath id="A"><path fill="#fff" d="M0 0h135v40H0z"/></clipPath></defs></svg>