<svg width="64" height="64" viewBox="0 0 64 64" fill="none" xmlns="http://www.w3.org/2000/svg">
<path d="M37.0004 62.0001V56.5001C37.0004 54.5501 37.7504 52.7001 39.0504 51.3001L52.6004 36.9501C54.5004 34.9501 54.4004 31.8001 52.4004 29.9001C50.4004 28.0001 47.2504 28.1001 45.3504 30.1001L38.6004 37.2001C39.2504 36.3001 39.9004 35.4501 40.6004 34.6001L53.1504 20.1001C55.1504 17.8001 54.9004 14.3501 52.6004 12.3501C50.3004 10.3501 46.8504 10.6001 44.8504 12.9001L32.3004 27.4001C32.0004 27.7501 31.7004 28.1001 31.4004 28.5001C32.2504 26.9501 33.2004 25.4001 34.2504 23.9501L43.5004 10.6501C45.2504 8.15008 44.6004 4.75008 42.1504 3.00008C39.6504 1.25008 36.2504 1.90008 34.5004 4.35008L25.2004 17.6501C24.7004 18.4001 24.2004 19.1501 23.7004 19.9001L28.8504 10.0001C30.2504 7.30008 29.2004 4.00008 26.5004 2.60008C23.8004 1.20008 20.5004 2.25008 19.1004 4.95008L13.9504 14.9001C10.4504 21.6001 8.15039 28.8501 7.15039 36.3001V63.5001" fill="#FCFCFC"/>
<path d="M7.24981 61.9999C4.49981 50.2999 9.04981 40.4999 16.5998 32.0499L18.6998 29.6999C20.3498 27.8499 23.1998 27.6499 25.0498 29.2999C26.8998 30.9499 27.0998 33.7999 25.4498 35.6499L23.2998 37.9999C17.6498 44.3499 18.0998 50.4999 21.8498 56.9999H36.9998V63.4999H7.49981L7.24981 61.9999Z" fill="#FCFCFC"/>
<path d="M7.24981 61.9999C4.49981 50.2999 9.04981 40.4999 16.5998 32.0499L18.6998 29.6999C20.3498 27.8499 23.1998 27.6499 25.0498 29.2999C26.8998 30.9499 27.0998 33.7999 25.4498 35.6499L23.2998 37.9999C17.6498 44.3499 18.0998 50.4999 21.8498 56.9999H36.9998V63.4999H7.49981L7.24981 61.9999Z" fill="#FCFCFC"/>
<path d="M37.0007 63.5002C36.1507 63.5002 35.5007 62.8502 35.5007 62.0002V56.5002C35.5007 54.1502 36.4007 51.9502 38.0007 50.2502L51.5507 35.9002C52.9007 34.5002 52.8008 32.3002 51.4007 30.9502C50.7007 30.3002 49.8507 29.9502 48.9007 30.0002C47.9507 30.0502 47.1007 30.4002 46.4507 31.1002L39.7007 38.2502C39.1507 38.8002 38.2507 38.9002 37.6507 38.4002C37.0507 37.9002 36.9007 37.0002 37.3507 36.4002C38.0507 35.4502 38.7507 34.5002 39.4507 33.7002L52.0007 19.2002C53.4507 17.5502 53.2507 15.0002 51.6007 13.5502C49.9507 12.1002 47.4007 12.3002 45.9507 13.9502L33.4007 28.4502C33.1507 28.7502 32.8507 29.1002 32.6007 29.4002L32.5007 29.5002C32.0007 30.1002 31.1507 30.2502 30.5007 29.8002C29.8507 29.3502 29.6507 28.5002 30.0507 27.8502C30.9507 26.2002 31.9507 24.6502 32.9507 23.1502L42.2007 9.85018C42.8007 8.95018 43.0507 7.90018 42.8507 6.85018C42.6507 5.80018 42.1007 4.90018 41.2007 4.25018C40.3007 3.65018 39.2507 3.40018 38.2007 3.60018C37.1507 3.80018 36.2507 4.35018 35.6007 5.25018L26.4507 18.5502C26.0007 19.2002 25.5007 19.9002 25.0007 20.7502C24.5507 21.4502 23.7007 21.6502 23.0007 21.2502C22.3007 20.8502 22.0507 19.9502 22.4007 19.2502L27.5507 9.35018C28.0507 8.40018 28.1507 7.30018 27.8007 6.30018C27.5007 5.30018 26.8007 4.45018 25.8507 3.95018C24.9007 3.45018 23.8007 3.35018 22.8007 3.70018C21.8007 4.00018 20.9507 4.70018 20.4507 5.65018L15.2507 15.6002C11.8507 22.1502 9.60075 29.2002 8.60075 36.5502C8.50075 37.3502 7.75075 37.9502 6.90075 37.8502C6.10075 37.7502 5.50075 37.0002 5.60075 36.1502C6.65075 28.4502 9.00075 21.1002 12.6007 14.2502L17.8007 4.25018C18.6507 2.60018 20.1007 1.35018 21.9007 0.800181C23.7007 0.250181 25.6007 0.400181 27.2507 1.25018C28.9007 2.10018 30.1507 3.55018 30.7007 5.35018C30.8507 5.80018 30.9507 6.25018 31.0007 6.75018L33.2507 3.50018C34.3007 1.95018 35.9007 0.950181 37.7507 0.600181C39.6007 0.250181 41.4507 0.700181 43.0007 1.75018C44.5507 2.80018 45.5508 4.40018 45.9007 6.25018C46.1507 7.75018 45.9507 9.20018 45.3007 10.5502C47.8507 8.95018 51.2007 9.15018 53.5507 11.2002C56.4507 13.7002 56.8007 18.1502 54.3007 21.0502L49.2007 27.0002C50.8007 27.0502 52.3007 27.6502 53.5007 28.7502C56.1007 31.2002 56.2007 35.3502 53.7507 37.9502L40.2007 52.3002C39.1507 53.4502 38.5507 54.9002 38.5507 56.4502V61.9502C38.5007 62.8502 37.8507 63.5002 37.0007 63.5002Z" fill="#4F6470"/>
<path d="M20.65 57H43.9C46.45 57 48.5 54.95 48.5 52.4V6.55C48.5 4.05 46.45 2 43.9 2H20.1C17.55 2 15.5 4.05 15.5 6.6L15.65 52.05C15.65 54.75 17.9 57 20.65 57Z" fill="#FCFCFC"/>
<path opacity="0.2" d="M18.7004 29.7C20.3504 27.85 23.2004 27.65 25.0504 29.3C26.9004 30.95 27.1004 33.8 25.4504 35.65L23.3004 38C21.7504 39.8 20.6504 41.55 19.9504 43.3C20.6004 43.45 21.3004 43.5 22.0004 43.5C28.1004 43.5 33.0004 38.6 33.0004 32.5C33.0004 26.4 28.1004 21.5 22.0004 21.5C19.5004 21.5 17.2504 22.3 15.4004 23.7L15.4504 33.4C15.8504 32.95 16.2004 32.5 16.6004 32.05L18.7004 29.7Z" fill="#07A68D"/>
<path d="M32 48C31.337 48 30.7011 48.2634 30.2322 48.7322C29.7634 49.2011 29.5 49.837 29.5 50.5C29.5 51.163 29.7634 51.7989 30.2322 52.2678C30.7011 52.7366 31.337 53 32 53C32.663 53 33.2989 52.7366 33.7678 52.2678C34.2366 51.7989 34.5 51.163 34.5 50.5C34.5 49.837 34.2366 49.2011 33.7678 48.7322C33.2989 48.2634 32.663 48 32 48Z" fill="#07A68D"/>
<path d="M7.24961 63.5001C6.54961 63.5001 5.94961 63.0501 5.79961 62.3501C3.29961 51.5001 6.44961 41.2501 15.4996 31.0501L17.5996 28.7001C18.6496 27.5001 20.1496 26.8001 21.7496 26.7001C23.3496 26.6001 24.8996 27.1501 26.0996 28.2001C27.2996 29.2501 27.9996 30.7501 28.0996 32.3501C28.1996 33.9501 27.6496 35.5001 26.5996 36.7001L24.4496 39.0001C19.7496 44.3001 19.3496 49.6501 23.1496 56.2501C23.5496 56.9501 23.2996 57.9001 22.5996 58.3001C21.8996 58.7001 20.9496 58.4501 20.5496 57.7501C16.0496 49.9501 16.5496 43.3501 22.1996 37.0001L24.2996 34.6501C24.8496 34.0501 25.0996 33.3001 25.0496 32.5001C24.9996 31.7001 24.6496 30.9501 24.0496 30.4501C23.4496 29.9001 22.6996 29.6501 21.8996 29.7001C21.0996 29.7501 20.3496 30.1001 19.8496 30.7001L17.7496 33.0501C9.39961 42.4501 6.44961 51.8501 8.74961 61.6501C8.94961 62.4501 8.44961 63.2501 7.64961 63.4501C7.44961 63.5001 7.34961 63.5001 7.24961 63.5001Z" fill="#4F6470"/>
<path d="M43.7496 58.5H27.6496C26.7996 58.5 26.1496 57.85 26.1496 57C26.1496 56.15 26.7996 55.5 27.6496 55.5H43.7496C45.4496 55.5 46.8496 54.1 46.8496 52.4V6.6C46.8496 4.9 45.4496 3.5 43.7496 3.5H19.9496C18.2496 3.5 16.8496 4.9 16.8496 6.6V23.95C16.8496 24.8 16.1996 25.45 15.3496 25.45C14.4996 25.45 13.8496 24.8 13.8496 23.95V6.6C13.8496 3.25 16.5496 0.5 19.9496 0.5H43.7996C47.1496 0.5 49.8996 3.25 49.8996 6.6V52.45C49.8496 55.75 47.0996 58.5 43.7496 58.5Z" fill="#08BA9E"/>
</svg>
