<svg width="90" height="90" viewBox="0 0 90 90" fill="none" xmlns="http://www.w3.org/2000/svg">
<path fill-rule="evenodd" clip-rule="evenodd" d="M12.7908 23.348C5.96634 27.7337 -0.0708573 30.2549 5.64477 39.4741C7.22014 42.0153 9.78743 44.8485 11.7132 47.2256L30.1968 70.0365C32.4149 72.796 34.4548 75.344 38.0656 76.2879C41.3169 77.104 41.236 76.366 40.2429 74.1847C39.4708 72.4888 38.7596 71.0684 38.0099 69.3148C35.2605 62.8824 32.4597 56.4608 29.6922 50.034C27.0124 43.8114 24.3374 36.8203 21.4133 30.8011C19.3258 27.1615 23.5137 20.8311 24.7883 16.0766C24.9297 15.5484 16.3804 21.0414 12.7912 23.3484L12.7908 23.348Z" fill="#081386"/>
<path fill-rule="evenodd" clip-rule="evenodd" d="M75.5933 70.5816C75.846 59.7218 75.6065 48.5677 75.6065 37.675C75.6065 35.2499 76.1499 23.0334 74.9838 21.8396C74.4524 21.2954 64.6346 16.0868 63.6875 15.7188C64.665 17.5012 64.1856 36.7564 64.1856 40.2948C64.1856 48.6366 64.0575 57.0813 64.1816 65.4459L75.5929 70.5816H75.5933Z" fill="#A4301C"/>
<path fill-rule="evenodd" clip-rule="evenodd" d="M35.8842 13.0218C36.1573 14.26 36.4373 15.6592 36.4341 15.6972C35.1843 26.012 33.4903 36.4033 32.1484 46.6528L35.0581 47.7769L38.3022 16.02C38.6854 16.0728 39.3814 16.0993 39.729 16.1469L37.293 48.5121L40.1779 49.0647L41.6539 16.251C41.9342 16.2398 42.7816 16.2787 43.0463 16.3055L42.5221 49.2249L45.4914 49.2918L44.9825 16.3087C45.2516 16.2899 46.2067 16.2246 46.4309 16.2362L47.7616 49.0375C48.2834 48.9382 50.3921 48.4709 50.7549 48.5113L48.327 16.1385L49.6737 16.022L52.9899 47.6916L55.9019 46.6364L51.5963 15.7172L52.1125 13.0002C52.3371 11.8177 51.5406 12.0119 51.5406 12.0119C50.9019 12.0944 50.28 12.1717 49.671 12.2369C45.6977 12.6642 42.2842 12.7051 38.2901 12.2934C37.6955 12.2325 37.088 12.1608 36.4637 12.0792C36.4637 12.0792 35.6188 11.8149 35.8847 13.021L35.8842 13.0218Z" fill="#A9ABAE"/>
<path fill-rule="evenodd" clip-rule="evenodd" d="M63.1149 63.6255C63.233 63.2615 63.1709 46.1679 63.1413 43.3635C63.1309 42.3716 63.3351 37.6727 62.4966 40.3041C60.0715 46.5631 57.026 53.034 54.3634 59.247C53.0115 62.4017 51.6524 65.5557 50.2913 68.7068C49.9473 69.5033 49.5652 70.3399 49.1968 71.1764C48.8596 71.9417 48.5333 72.7073 48.2578 73.4405C47.6283 75.1148 46.4001 77.0862 49.0186 76.5857C52.7933 75.8833 54.7575 73.845 57.0717 71.023C57.6143 70.3619 63.1024 63.6627 63.1149 63.6251V63.6255Z" fill="#081386"/>
<path fill-rule="evenodd" clip-rule="evenodd" d="M76.4037 49.1276C79.166 46.1775 84.5761 39.5332 85.6814 35.8002C86.6529 32.5193 86.0426 29.7578 83.2006 27.7432C81.073 26.2351 78.603 24.5596 76.3633 23.2461L76.4037 49.1276Z" fill="#081386"/>
<path fill-rule="evenodd" clip-rule="evenodd" d="M64.1795 66.8008C64.1303 67.4415 64.19 69.0669 64.194 71.8449C64.371 72.1019 67.4264 73.3626 67.9786 73.6096C70.427 74.7033 73.1248 76.0356 75.6172 76.999V71.8965L64.1799 66.8012L64.1795 66.8008Z" fill="#D4C04F"/>
</svg>
