<svg width="745" height="161" viewBox="0 0 745 161" fill="none" xmlns="http://www.w3.org/2000/svg">
<path fill-rule="evenodd" clip-rule="evenodd" d="M458.57 93.4679C461.337 81.3383 458.915 63.1809 451.124 52.9521C442.297 41.3639 423.467 37.9799 414.58 37.8896C418.317 31.5709 438.362 13.3137 445.666 4.79653C450.203 -0.494029 442.964 0.108852 439.815 0.110772C414.062 0.127092 419.069 -2.30938 403.436 14.8343C400.232 18.3469 373.402 47.4512 373.601 49.6132C373.789 51.6637 377.909 57.6474 377.939 58.3098C385.569 58.306 402.428 58.2733 409.037 58.3636C416.404 58.4644 424.687 59.2832 429.549 68.2957C436.281 80.7776 431.728 96.9786 419.293 102.855C418.279 103.333 417.227 103.793 416.098 104.078C413.821 104.653 413.441 104.371 413.435 102.459C413.433 101.577 413.38 100.742 413.329 99.9508C412.215 82.7946 403.224 86.0202 356.981 85.8945L356.867 12.0205C330.138 12.105 331.028 12.0829 331.028 47.5108C331.028 66.9661 331.352 86.4292 330.976 105.862C330.56 127.375 321.632 134.692 300.832 131.081C292.644 129.659 292.899 117.359 293.242 110.59C293.505 105.422 298.052 105.054 298.052 100.65C298.052 88.641 301.547 86.3793 282.393 87.0589C266.822 87.6109 268.395 104.006 268.188 117.018C267.888 135.91 271.623 147.821 287.896 156.126C296.329 160.43 326.907 160.761 338.543 153.789C352.377 145.502 357.321 127.642 357.097 112.658L406.408 112.566C409.45 113.346 410.672 113.108 411.022 116.887C411.882 126.176 416.149 134.418 437.657 124.099C445.751 120.216 454.787 110.047 458.57 93.4689V93.4679Z" fill="#081386"/>
<path fill-rule="evenodd" clip-rule="evenodd" d="M568.38 32.2201C552.02 42.734 537.547 48.7782 551.249 70.8793C555.026 76.9714 561.18 83.7634 565.797 89.462L610.108 144.146C615.425 150.762 620.315 156.87 628.972 159.133C636.766 161.09 636.572 159.32 634.191 154.091C632.34 150.026 630.635 146.62 628.838 142.417C622.247 126.996 615.533 111.602 608.898 96.1945C602.474 81.277 596.061 64.5174 589.051 50.0876C584.047 41.3622 594.086 26.1865 597.142 14.7884C597.481 13.5222 576.986 26.6905 568.381 32.221L568.38 32.2201Z" fill="#081386"/>
<path fill-rule="evenodd" clip-rule="evenodd" d="M497.228 88.0799C499.382 87.9176 503.729 87.8975 505.696 87.982C509.72 88.1548 509.034 92.7042 509.036 95.5189C509.044 107.593 510.398 108.252 500.075 108.148C494.143 108.087 488.69 106.923 488.398 99.716C487.924 88.0156 493.975 87.9608 497.228 88.0808V88.0799ZM518.742 66.6056C507.737 65.9029 486.65 64.2604 476.783 69.8821C465.67 76.2143 463.351 93.0997 465.581 104.475C469.215 123.003 487.196 126.657 488.898 127.64C489.998 128.275 468.523 149.784 466.087 152.109C457.362 160.442 461.932 159.899 471.557 159.893C478.362 159.888 487.971 160.497 491.653 156.904L514.953 133.327C530.184 118.632 530.049 121.674 529.872 101.292C529.806 93.7727 529.552 85.9631 529.377 78.4146C529.185 70.1653 527.125 67.1413 518.742 66.6066V66.6056Z" fill="#081386"/>
<path fill-rule="evenodd" clip-rule="evenodd" d="M718.932 145.455C719.538 119.42 718.964 92.6804 718.964 66.5675C718.964 60.7537 720.267 31.467 717.471 28.6052C716.197 27.3006 692.661 14.8139 690.391 13.9316C692.734 18.2046 691.585 64.3652 691.585 72.8478C691.585 92.8456 691.278 113.09 691.575 133.143L718.931 145.455H718.932Z" fill="#A4301C"/>
<path fill-rule="evenodd" clip-rule="evenodd" d="M623.741 7.46717C624.396 10.4355 625.067 13.7897 625.059 13.8809C622.063 38.6086 618.002 63.5196 614.785 88.0908L621.761 90.7856L629.537 14.6547C630.456 14.7814 632.125 14.8448 632.958 14.959L627.118 92.5481L634.034 93.8729L637.573 15.2086C638.245 15.1817 640.276 15.2749 640.911 15.3392L639.654 94.2569L646.772 94.4173L645.552 15.3468C646.197 15.3017 648.487 15.1452 649.025 15.1731L652.215 93.8076C653.465 93.5696 658.521 92.4493 659.391 92.5462L653.57 14.9388L656.799 14.6595L664.748 90.5811L671.729 88.0515L661.408 13.9289L662.645 7.41533C663.184 4.58045 661.274 5.04604 661.274 5.04604C659.743 5.2438 658.252 5.42908 656.792 5.58556C647.267 6.60988 639.084 6.70781 629.509 5.72093C628.083 5.57501 626.627 5.40317 625.13 5.20733C625.13 5.20733 623.105 4.57373 623.742 7.46525L623.741 7.46717Z" fill="#A9ABAE"/>
<path fill-rule="evenodd" clip-rule="evenodd" d="M363.255 160.203C414.916 158.211 404.64 162.534 415.422 142.929C419.636 135.265 409.425 134.598 397.015 134.396C359.463 133.786 362.307 133.71 363.255 160.203Z" fill="#081386"/>
<path fill-rule="evenodd" clip-rule="evenodd" d="M689.018 128.778C689.302 127.905 689.153 86.9268 689.082 80.2039C689.057 77.826 689.547 66.5613 687.536 72.8695C681.723 87.8743 674.422 103.387 668.039 118.281C664.798 125.844 661.539 133.405 658.276 140.959C657.452 142.869 656.536 144.874 655.653 146.88C654.844 148.714 654.062 150.55 653.402 152.308C651.892 156.321 648.948 161.047 655.226 159.847C664.274 158.164 668.983 153.277 674.531 146.512C675.832 144.927 688.989 128.867 689.018 128.777V128.778Z" fill="#081386"/>
<path fill-rule="evenodd" clip-rule="evenodd" d="M720.878 94.0223C727.5 86.95 740.47 71.0217 743.12 62.0726C745.448 54.2073 743.985 47.5871 737.172 42.7574C732.072 39.142 726.151 35.1254 720.781 31.9766L720.878 94.0223Z" fill="#081386"/>
<path fill-rule="evenodd" clip-rule="evenodd" d="M691.578 136.393C691.46 137.929 691.603 141.825 691.612 148.485C692.037 149.101 699.361 152.123 700.685 152.715C706.555 155.337 713.022 158.531 718.997 160.841V148.609L691.579 136.394L691.578 136.393Z" fill="#D4C04F"/>
<path fill-rule="evenodd" clip-rule="evenodd" d="M190.398 93.5187C193.165 81.3891 190.743 63.2316 182.952 53.0028C174.125 41.4147 155.295 38.0307 146.408 37.9404C150.145 31.6217 170.19 13.3644 177.494 4.84731C182.031 -0.443246 174.792 0.159634 171.643 0.161554C145.89 0.177874 150.898 -2.25861 135.264 14.8851C132.061 18.3977 105.23 47.502 105.429 49.6639C105.617 51.7145 109.738 57.6982 109.767 58.3606C117.397 58.3567 134.256 58.3241 140.865 58.4144C148.232 58.5152 156.516 59.334 161.377 68.3465C168.109 80.8284 163.556 97.0294 151.121 102.906C150.108 103.384 149.055 103.843 147.926 104.129C145.649 104.704 145.269 104.421 145.263 102.51C145.261 101.628 145.208 100.793 145.157 100.002C144.043 82.8454 135.052 86.071 88.8096 85.9452L88.6954 12.0713C61.9661 12.1558 62.856 12.1337 62.856 47.5616C62.856 67.0169 63.1805 86.48 62.8042 105.913C62.3885 127.426 53.4605 134.743 32.6602 131.131C24.4724 129.71 24.7268 117.41 25.0704 110.641C25.3335 105.473 29.88 105.105 29.88 100.7C29.88 88.6918 33.3754 86.43 14.2215 87.1097C-1.34972 87.6617 0.222764 104.057 0.0163641 117.068C-0.284116 135.961 3.45124 147.872 19.7242 156.177C28.1568 160.481 58.7348 160.812 70.3709 153.84C84.2055 145.553 89.1495 127.693 88.9248 112.709L138.236 112.617C141.278 113.396 142.501 113.158 142.85 116.938C143.71 126.227 147.977 134.468 169.485 124.149C177.579 120.267 186.615 110.098 190.398 93.5196V93.5187Z" fill="#081386"/>
<path fill-rule="evenodd" clip-rule="evenodd" d="M229.056 88.1307C231.21 87.9684 235.557 87.9483 237.524 88.0327C241.548 88.2055 240.862 92.755 240.864 95.5697C240.872 107.644 242.226 108.303 231.903 108.199C225.971 108.138 220.518 106.974 220.226 99.7668C219.753 88.0663 225.803 88.0116 229.056 88.1316V88.1307ZM250.571 66.6564C239.565 65.9537 218.478 64.3111 208.611 69.9329C197.498 76.2651 195.179 93.1505 197.41 104.526C201.043 123.054 219.024 126.707 220.726 127.69C221.826 128.326 200.351 149.835 197.915 152.16C189.19 160.493 193.761 159.95 203.386 159.943C210.19 159.939 219.799 160.548 223.481 156.955L246.781 133.377C262.012 118.683 261.877 121.725 261.7 101.343C261.635 93.8235 261.38 86.0139 261.205 78.4654C261.013 70.2161 258.953 67.1921 250.571 66.6574V66.6564Z" fill="#081386"/>
<path fill-rule="evenodd" clip-rule="evenodd" d="M95.0867 160.252C146.748 158.26 136.472 162.583 147.254 142.977C151.468 135.314 141.257 134.647 128.847 134.445C91.2947 133.834 94.1392 133.759 95.0867 160.252Z" fill="#081386"/>
</svg>
