<svg width="64" height="64" viewBox="0 0 64 64" fill="none" xmlns="http://www.w3.org/2000/svg">
<path d="M49.1002 58.4009L38.0002 53.9009C37.2502 56.5509 34.1502 58.0509 31.9002 58.3509V58.4009C31.5502 58.4009 30.9502 58.3509 30.9002 58.3509C28.7502 57.9509 26.7502 56.5009 26.0502 53.9509L14.9502 58.4509C26.0002 61.9509 38.0002 61.9509 49.1002 58.4009Z" fill="white"/>
<path d="M37.9998 51.001V54.251C36.2498 60.251 27.7498 60.251 26.0498 54.251V51.001" fill="#F7EBDE"/>
<path d="M48.1496 29.9012C48.1496 16.7012 41.5996 9.95117 31.9996 9.95117C22.3996 9.95117 15.8496 16.7512 15.8496 29.9012C12.7496 30.1512 13.4496 37.2012 16.9496 36.8012C17.9496 39.6512 19.0496 42.0012 20.1996 44.0012C24.1496 50.7512 28.6496 52.7512 31.9496 52.7512C36.1996 52.7512 42.4996 49.4512 46.9496 36.8512C50.5496 37.2012 51.2496 30.1512 48.1496 29.9012Z" fill="#F7EBDE"/>
<path d="M15.0003 60.2508C14.4003 60.2508 13.8503 59.9008 13.6003 59.3008C13.3003 58.5508 13.6503 57.6508 14.4003 57.3508L25.4503 52.8508C26.2003 52.5508 27.1003 52.9008 27.4003 53.6508C27.7003 54.4008 27.3503 55.3008 26.6003 55.6008L15.5503 60.1008C15.3503 60.2008 15.1503 60.2508 15.0003 60.2508ZM49.0503 60.2508C48.8503 60.2508 48.6503 60.2008 48.5003 60.1508L37.4503 55.6508C36.7003 55.3508 36.3003 54.4508 36.6503 53.7008C36.9503 52.9508 37.8503 52.5508 38.6003 52.9008L49.6503 57.4008C50.4003 57.7008 50.8003 58.6008 50.4503 59.3508C50.2003 59.9008 49.6003 60.2508 49.0503 60.2508Z" fill="#4F6470"/>
<path d="M31.9999 60.2511C28.4499 60.2511 25.5499 58.0511 24.5999 54.6511C24.3499 53.8511 24.8499 53.0011 25.6499 52.8011C26.4499 52.5511 27.2999 53.0511 27.4999 53.8511C28.2499 56.4011 30.2999 57.3011 32.0499 57.3011C33.7999 57.3011 35.8499 56.4011 36.5999 53.8511C36.8499 53.0511 37.6499 52.6011 38.4499 52.8011C39.2499 53.0511 39.6999 53.8511 39.4999 54.6511C38.4499 58.0511 35.5499 60.2511 31.9999 60.2511Z" fill="#4F6470"/>
<path d="M31.9995 54.2009C29.2995 54.2009 23.9995 53.0509 19.2495 45.2009C18.7995 44.5009 19.0495 43.5509 19.7495 43.1509C20.4495 42.7009 21.3995 42.9509 21.7995 43.6509C25.7995 50.2509 29.8995 51.2009 31.9995 51.2009C34.4995 51.2009 40.7995 49.7509 45.5995 36.3009C45.8995 35.5009 46.7495 35.1009 47.4995 35.4009C48.2995 35.7009 48.6995 36.5509 48.3995 37.3009C42.9995 52.5509 35.1495 54.2009 31.9995 54.2009Z" fill="#4F6470"/>
<path d="M48.3496 29.951C48.2991 29.951 48.2496 29.951 48.1496 29.951C48.1496 16.751 41.5996 10.001 31.9996 10.001C24.9996 10.001 19.5996 13.601 17.1996 20.701C16.3496 23.151 15.8996 26.001 15.8496 29.251C19.7056 20.067 24.7746 23.5335 31.5366 26.9995C36.2601 29.421 41.8101 31.843 48.3496 29.951Z" fill="#08BA9E"/>
<path d="M43.5497 32.1509C38.1002 32.1509 33.3997 29.7009 29.4497 27.6509C26.0497 25.8509 23.0997 24.3509 20.9997 25.1009C19.5997 25.6009 18.3497 27.1509 17.2497 29.8009C16.9497 30.5509 16.0497 30.9009 15.2997 30.6009C14.5497 30.3009 14.1997 29.4009 14.4997 28.6509C15.9497 25.1509 17.7497 23.1009 19.9997 22.2509C23.3497 21.0509 26.8497 22.8509 30.8497 24.9509C35.7497 27.5009 41.2997 30.4009 47.8997 28.5009C48.7002 28.2509 49.5497 28.7009 49.7497 29.5009C49.9997 30.3009 49.5497 31.1509 48.7497 31.3509C46.9497 31.9009 45.1997 32.1009 43.5497 32.1509Z" fill="#4F6470"/>
<path d="M29.9318 27.9009H18.1698C17.8523 28.4554 17.5458 29.0884 17.2498 29.8009C17.0223 30.3694 16.4503 30.7079 15.8598 30.7079C15.7703 30.7079 15.6808 30.7004 15.5918 30.6844C15.6938 33.3659 15.8443 37.3039 15.8493 37.3039C15.8493 37.3039 15.8493 37.3029 15.8493 37.3009C15.8493 38.6014 16.8993 39.6509 18.1993 39.6509H26.6993C27.7493 39.6509 28.6993 38.9009 28.9493 37.8509L29.4493 34.9009C29.5493 34.2509 30.1493 33.7509 30.8493 33.7509C31.5493 33.7509 32.0993 34.2509 32.2493 34.9009L32.7493 37.8509C32.9993 38.9009 33.9493 39.6509 34.9993 39.6509H43.4993C44.7993 39.6509 45.8493 38.6009 45.8493 37.3009L46.0563 31.9439C45.2003 32.0654 44.3623 32.1264 43.5488 32.1509C38.3198 32.1509 33.7803 29.8949 29.9318 27.9009Z" fill="white"/>
<path d="M45.3505 27.9009H37.21C39.2235 28.6249 41.3465 29.1129 43.5985 29.1129C44.4395 29.1129 45.298 29.0449 46.1755 28.8954L46.2005 28.2509C46.0005 28.0009 45.7005 27.9009 45.3505 27.9009Z" fill="#FAF4F2"/>
<path d="M37.2091 27.9009H29.9316C33.7801 29.8949 38.3196 32.1509 43.5496 32.1509C44.3631 32.1264 45.2011 32.0654 46.0571 31.9439L46.1751 28.8959C45.2971 29.0454 44.4386 29.1134 43.5981 29.1134C41.3461 29.1129 39.2231 28.6244 37.2091 27.9009Z" fill="#EDEDEE"/>
<path d="M49.4504 40.651L45.4004 39.951L48.1504 24.001L52.2004 24.701C53.9504 25.001 55.1004 26.701 54.8004 28.451L53.1504 38.001C52.8504 39.751 51.2004 40.951 49.4504 40.651Z" fill="white"/>
<path d="M50.0004 42.2011C49.7504 42.2011 49.4504 42.2011 49.2004 42.1511L45.4004 41.5011C44.6004 41.3511 44.0504 40.6011 44.1504 39.8011L46.6504 23.8011C46.7004 23.4011 46.9504 23.0511 47.2504 22.8011C47.5504 22.5511 48.0004 22.5011 48.4004 22.5511L52.4504 23.2511C55.0004 23.7011 56.7504 26.1511 56.2504 28.7511L54.5504 38.3011C54.2504 40.5511 52.3004 42.2011 50.0004 42.2011ZM47.4004 38.7511L49.7004 39.1511C49.8004 39.1511 49.9004 39.2011 50.0004 39.2011C50.8504 39.2011 51.5504 38.6011 51.7004 37.7511L53.4004 28.2011C53.5504 27.2511 52.9504 26.3511 52.0004 26.2011L49.4504 25.7511L47.4004 38.7511Z" fill="#4F6470"/>
<path d="M14.5499 40.651L18.5999 39.951L15.8499 24.001L11.7999 24.701C10.0499 25.001 8.89988 26.701 9.19988 28.451L10.8499 38.001C11.1499 39.751 12.7999 40.951 14.5499 40.651Z" fill="white"/>
<path d="M14.0003 42.2011C11.7003 42.2011 9.75033 40.5511 9.35033 38.3011L7.65033 28.7511C7.20033 26.2011 8.90033 23.7511 11.4503 23.2511L15.5003 22.5511C15.9003 22.5011 16.3003 22.5511 16.6003 22.8011C16.9503 23.0511 17.1503 23.4011 17.2003 23.7511L20.0003 39.6511C20.1503 40.4511 19.6003 41.2511 18.8003 41.4011L14.7503 42.1011C14.5503 42.1511 14.3003 42.2011 14.0003 42.2011ZM14.6003 25.7511L12.0003 26.2011C11.0503 26.3511 10.4503 27.2511 10.6003 28.2011L12.3003 37.7511C12.4503 38.6011 13.1503 39.2011 14.0003 39.2011C14.1003 39.2011 14.2003 39.2011 14.3003 39.1511L16.9003 38.7011L14.6003 25.7511Z" fill="#4F6470"/>
<path d="M12.7002 25.401H12.6502C11.8002 25.351 11.2002 24.651 11.2002 23.851C11.6502 12.551 20.7502 3.75098 32.0002 3.75098C43.0502 3.75098 52.1502 12.401 52.7502 23.451C52.8002 24.301 52.1502 25.001 51.3502 25.051C50.5002 25.101 49.8002 24.451 49.7502 23.651C49.2502 14.201 41.4502 6.80098 32.0002 6.80098C22.4002 6.80098 14.6002 14.351 14.2002 24.001C14.2002 24.751 13.5002 25.401 12.7002 25.401Z" fill="#4F6470"/>
<path d="M48.1504 31.4012C47.3004 31.4012 46.6504 30.7512 46.6504 29.9012C46.6504 18.2012 41.3004 11.4512 32.0004 11.4512C25.6004 11.4512 21.0504 14.6012 18.8504 20.5512C18.5504 21.3512 17.7004 21.7012 16.9004 21.4512C16.1004 21.1512 15.7504 20.3012 16.0004 19.5012C18.7004 12.4012 24.3504 8.45117 32.0004 8.45117C43.0504 8.45117 49.6504 16.4512 49.6504 29.9012C49.6504 30.7512 48.9504 31.4012 48.1504 31.4012Z" fill="#4F6470"/>
</svg>
