<?xml version="1.0" encoding="UTF-8"?>
<!DOCTYPE svg PUBLIC "-//W3C//DTD SVG 1.1//EN" "http://www.w3.org/Graphics/SVG/1.1/DTD/svg11.dtd">
<!-- Creator: CorelDRAW -->
<svg xmlns="http://www.w3.org/2000/svg" xml:space="preserve" width="512px" height="512px" version="1.1" style="shape-rendering:geometricPrecision; text-rendering:geometricPrecision; image-rendering:optimizeQuality; fill-rule:evenodd; clip-rule:evenodd"
viewBox="0 0 512 512"
 xmlns:xlink="http://www.w3.org/1999/xlink"
 xmlns:xodm="http://www.corel.com/coreldraw/odm/2003">
 <defs>
  <style type="text/css">
   <![CDATA[
    .fil0 {fill:#FEFEFE}
    .fil2 {fill:#ED3237}
    .fil1 {fill:#3E4095}
    .fil3 {fill:#FBB12F}
   ]]>
  </style>
 </defs>
 <g id="Layer_x0020_1">
  <metadata id="CorelCorpID_0Corel-Layer"/>
  <rect class="fil0" transform="matrix(5.15623E-14 -2.00804 1.936 5.30308E-14 12.4318 510.18)" width="252.75" height="252.75" rx="61.44" ry="61.44"/>
  <path class="fil1" d="M75.79 163.4c-38.6,24.81 -72.75,39.07 -40.42,91.22 8.91,14.38 23.43,30.4 34.33,43.85l104.55 129.03c12.55,15.61 24.09,30.02 44.51,35.36 18.39,4.62 17.94,0.45 12.32,-11.89 -4.37,-9.6 -8.39,-17.63 -12.63,-27.55 -15.56,-36.39 -31.4,-72.71 -47.05,-109.06 -15.16,-35.2 -30.29,-74.75 -46.83,-108.8 -11.81,-20.58 11.88,-56.39 19.09,-83.29 0.8,-2.98 -47.56,28.09 -67.86,41.14l-0.01 -0.01z"/>
  <path class="fil2" d="M431.03 430.59c1.43,-61.43 0.08,-124.52 0.08,-186.14 0,-13.72 3.07,-82.82 -3.53,-89.57 -3,-3.08 -58.54,-32.55 -63.89,-34.63 5.52,10.09 2.81,119 2.81,139.02 0,47.18 -0.72,94.95 -0.02,142.27l64.55 29.05 0 0z"/>
  <path class="fil1" d="M360.44 391.24c0.67,-2.06 0.32,-98.75 0.15,-114.61 -0.05,-5.61 1.1,-32.19 -3.64,-17.31 -13.72,35.41 -30.95,72.01 -46.01,107.15 -7.64,17.85 -15.33,35.69 -23.03,53.51 -1.95,4.51 -4.11,9.24 -6.19,13.97 -1.91,4.33 -3.76,8.66 -5.31,12.81 -3.57,9.47 -10.51,20.62 4.3,17.79 21.35,-3.97 32.46,-15.5 45.55,-31.47 3.07,-3.74 34.12,-41.63 34.19,-41.84l-0.01 0z"/>
  <path class="fil1" d="M435.62 309.23c15.63,-16.69 46.23,-54.27 52.48,-75.39 5.5,-18.56 2.04,-34.18 -14.03,-45.57 -12.04,-8.53 -26.01,-18.01 -38.68,-25.44l0.23 146.4 0 0z"/>
  <path class="fil3" d="M366.49 409.21c-0.28,3.62 0.06,12.82 0.08,28.53 1,1.46 18.29,8.59 21.41,9.98 13.85,6.19 29.11,13.73 43.21,19.18l0 -28.87 -64.7 -28.82 0 0z"/>
  <path class="fil1" d="M207.05 101.28l0 -0.01c-1.53,-6.96 3.35,-5.44 3.35,-5.44 3.6,0.47 7.11,0.89 10.54,1.24 23.06,2.38 42.76,2.14 65.7,-0.33 3.51,-0.37 7.1,-0.82 10.79,-1.29 0,0 4.6,-1.13 3.3,5.7l-2.98 15.69 24.86 178.48 -16.81 6.1 -19.15 -182.83 -7.77 0.68 14.02 186.88c-2.1,-0.24 -14.27,2.46 -17.29,3.04l-7.68 -189.36c-1.29,-0.06 -6.8,0.31 -8.36,0.42l2.94 190.4 -17.14 -0.38 3.02 -190.04c-1.52,-0.15 -6.42,-0.38 -8.03,-0.31l-8.52 189.42 -16.66 -3.19 14.06 -186.83c-2,-0.28 -6.02,-0.43 -8.23,-0.74l-18.73 183.33 -16.8 -6.49c7.75,-59.17 17.53,-119.15 24.74,-178.7 0.02,-0.22 -1.59,-8.29 -3.17,-15.44z"/>
 </g>
</svg>
