<svg width="64" height="64" viewBox="0 0 64 64" fill="none" xmlns="http://www.w3.org/2000/svg">
<path d="M31.9992 46.75C23.8492 46.75 17.1992 40.15 17.1992 32C17.1992 23.85 23.8492 17.25 31.9992 17.25C40.1492 17.25 46.7992 23.85 46.7992 32C46.7992 40.15 40.1492 46.75 31.9992 46.75Z" fill="#FCFCFC"/>
<path d="M1.10078 25.85C1.75079 25.35 2.70078 25.45 3.20078 26.1L4.80078 28.1C6.70078 14.75 18.1508 4.5 31.9508 4.5C39.3008 4.5 46.2008 7.35 51.3508 12.6C51.9508 13.2 51.9508 14.15 51.3508 14.7C50.7508 15.3 49.8008 15.3 49.2508 14.7C44.6508 10.05 38.5008 7.5 31.9508 7.5C19.6008 7.5 9.35078 16.75 7.75078 28.7L10.1008 26.85C10.7508 26.35 11.7008 26.45 12.2008 27.1C12.7008 27.75 12.6008 28.7 11.9508 29.2L6.95078 33.2C6.90078 33.25 6.85078 33.3 6.80078 33.3C6.80078 33.3 6.75078 33.3 6.75078 33.35C6.70078 33.4 6.60078 33.4 6.55078 33.45C6.50078 33.5 6.40078 33.5 6.30078 33.5C6.20078 33.5 6.15078 33.5 6.05078 33.5C6.05078 33.5 6.05078 33.5 6.00078 33.5C5.90078 33.5 5.80078 33.5 5.70078 33.45C5.65078 33.45 5.65078 33.45 5.60078 33.4C5.55079 33.4 5.45078 33.35 5.40078 33.35C5.35078 33.35 5.35078 33.3 5.30078 33.3C5.25078 33.25 5.15078 33.25 5.10078 33.2C5.00079 33.15 4.95078 33.05 4.85078 32.95L0.850784 27.95C0.350784 27.3 0.450783 26.35 1.10078 25.85Z" fill="#4F6470"/>
<path d="M32.5496 33.5499L38.5996 33.4999C39.4496 33.4999 40.0996 32.7999 40.0996 31.9999C40.0996 31.1499 39.3996 30.4999 38.5996 30.4999L33.5996 30.5499L33.4996 22.1499C33.4996 21.2999 32.8496 20.6499 31.9996 20.6499C31.1496 20.6499 30.4996 21.3499 30.4996 22.1499L30.5496 31.2499C30.4496 31.4499 30.3496 31.6999 30.3496 31.9999C30.3496 32.8999 31.0996 33.6499 31.9996 33.6499C32.1996 33.6499 32.3996 33.5999 32.5496 33.5499Z" fill="#4F6470"/>
<path d="M48.2992 32C48.2992 23.05 40.9992 15.75 31.9992 15.75C22.9992 15.75 15.6992 23.05 15.6992 32C15.6992 40.95 23.0492 48.25 31.9992 48.25C40.9492 48.25 48.2992 40.95 48.2992 32ZM18.6992 32C18.6992 24.7 24.6492 18.75 31.9992 18.75C39.3492 18.75 45.2992 24.7 45.2992 32C45.2992 39.3 39.2992 45.25 31.9992 45.25C24.6992 45.25 18.6992 39.3 18.6992 32Z" fill="#4F6470"/>
<path d="M14.6498 49.2998C19.2498 53.9498 25.3998 56.4998 31.9498 56.4998C44.2998 56.4998 54.5498 47.2498 56.1498 35.2998L53.7998 37.1498C53.4998 37.3498 53.1998 37.4998 52.8498 37.4998C52.3998 37.4998 51.9498 37.2998 51.6998 36.9498C51.1998 36.2998 51.2998 35.3498 51.9498 34.8498L56.9498 30.8498C56.9998 30.7998 57.0998 30.7498 57.1998 30.6998C57.1998 30.6998 57.2498 30.6998 57.2498 30.6498C57.2998 30.6498 57.3498 30.5998 57.3998 30.5998H57.4498C57.4998 30.5998 57.4998 30.5998 57.5498 30.5998C57.5998 30.5998 57.6498 30.5498 57.7498 30.5498C57.7998 30.5498 57.7998 30.5498 57.8498 30.5498C57.8998 30.5498 57.9998 30.5498 58.0498 30.5498H58.0998C58.1998 30.5498 58.2998 30.5998 58.3498 30.5998H58.3998C58.4498 30.5998 58.5498 30.6498 58.5998 30.6998C58.6498 30.6998 58.6498 30.7498 58.6998 30.7498C58.7498 30.7998 58.7998 30.7998 58.8498 30.8498L58.8998 30.8998C58.9498 30.9498 59.0498 30.9998 59.0998 31.0998L63.0998 36.0998C63.5998 36.7498 63.4998 37.6998 62.8498 38.1998C62.1998 38.6998 61.2498 38.5998 60.7498 37.9498L59.1498 35.9498C57.1998 49.2498 45.7498 59.4998 31.9498 59.4998C24.5998 59.4998 17.6998 56.6498 12.5498 51.3998C11.9498 50.7998 11.9498 49.8498 12.5498 49.2998C13.0998 48.6998 14.0498 48.6998 14.6498 49.2998Z" fill="#4F6470"/>
</svg>
