<svg xmlns="http://www.w3.org/2000/svg" xmlns:xlink="http://www.w3.org/1999/xlink" viewBox="0 0 18.56 17.19"><defs><style>.cls-1{fill:url(#linear-gradient);}.cls-2{fill:#0a33ff;}.cls-3{fill:url(#linear-gradient-2);}</style><linearGradient id="linear-gradient" x1="13.54" y1="1008.96" x2="7.46" y2="991.75" gradientTransform="matrix(1, 0, 0, -1, 0, 1008.9)" gradientUnits="userSpaceOnUse"><stop offset="0" stop-color="#ffd60a"/><stop offset="1" stop-color="#f0ba09"/></linearGradient><linearGradient id="linear-gradient-2" x1="10.04" y1="1007.11" x2="6.36" y2="997.93" gradientTransform="matrix(1, 0, 0, -1, 0, 1008.9)" gradientUnits="userSpaceOnUse"><stop offset="0" stop-color="#051a80"/><stop offset="1" stop-color="#0a33ff"/></linearGradient></defs><g id="Layer_2" data-name="Layer 2"><g id="Layer_1-2" data-name="Layer 1"><path class="cls-1" d="M8.45.76A1.2,1.2,0,0,1,9.57,0h7.78a1.21,1.21,0,0,1,1.13,1.65l-6,14.78a1.2,1.2,0,0,1-1.12.76H3.62a1.21,1.21,0,0,1-1.13-1.65Z"/><path class="cls-2" d="M5.16,10.31A5.16,5.16,0,1,0,0,5.16,5.16,5.16,0,0,0,5.16,10.31Z"/><path class="cls-3" d="M10.31,5.16a5.15,5.15,0,0,1-5.15,5.15,4.93,4.93,0,0,1-.55,0l3.71-9.2A5.17,5.17,0,0,1,10.31,5.16Z"/></g></g></svg>